<svg width="812" height="100" viewBox="0 0 812 100" fill="none" xmlns="http://www.w3.org/2000/svg">
<path d="M65.6137 8.19599L0.615664 99H22.5577L37.5997 78.024H108.394L123.436 99H145.516L80.5177 8.19599H65.6137ZM73.0657 28.482L97.9057 63.258H48.2257L73.0657 28.482ZM224.73 99.138C235.77 99.138 249.57 91.686 249.57 76.368V45.732C249.57 30.276 235.77 22.824 224.73 22.824H185.262C179.88 22.824 174.084 24.618 169.392 27.93V0.191997L151.59 0.0539989V99H169.392V94.032C174.084 97.482 179.88 99.138 185.262 99.138H224.73ZM222.384 84.372H178.5C170.91 84.372 169.392 79.818 169.392 76.368V45.732C169.392 42.282 170.91 37.59 178.5 37.59H222.384C229.974 37.59 231.768 42.282 231.768 45.732V76.368C231.768 79.818 229.974 84.372 222.384 84.372ZM284.746 22.824C273.706 22.824 259.906 30.276 259.906 45.732V76.368C259.906 91.686 273.706 99.138 284.746 99.138H335.944C346.984 99.138 360.646 91.686 360.646 76.368V45.732C360.646 30.276 346.984 22.824 335.944 22.824H284.746ZM333.736 37.59C341.188 37.59 342.706 42.282 342.706 45.732V76.368C342.706 79.818 341.188 84.372 333.736 84.372H286.954C279.502 84.372 277.708 79.818 277.708 76.368V45.732C277.708 42.282 279.502 37.59 286.954 37.59H333.736ZM431.117 99C436.637 99 442.295 97.62 447.125 93.756V99H465.065V22.824H447.125C447.125 22.824 446.987 73.746 446.849 74.574C446.849 79.956 445.883 81.06 444.365 82.302C442.847 83.544 440.501 84.234 437.879 84.234H398.963C396.203 84.234 393.857 83.544 392.339 82.302C390.959 81.06 389.855 79.956 389.855 74.574C389.855 72.228 389.855 31.794 389.855 22.824H371.777C371.777 28.896 371.639 68.364 371.915 74.436C372.053 76.506 372.191 78.714 372.605 80.784C373.847 85.89 376.469 90.306 380.057 93.342C384.887 97.482 390.959 99 396.617 99H431.117ZM484.606 4.19399V22.962H473.152V37.728H484.606V74.436C484.606 74.436 484.744 78.714 485.296 80.784C486.4 85.89 489.022 90.306 492.61 93.342C497.578 97.482 503.65 99.138 509.308 99.138H523.522C529.18 99.138 535.252 97.482 540.082 93.342C543.67 90.306 546.292 85.89 547.534 80.784C547.81 79.542 547.948 77.61 548.086 76.23H530.284C530.008 80.232 529.042 81.198 527.8 82.302C526.282 83.544 523.936 84.234 521.314 84.234H511.516C508.894 84.234 506.41 83.544 505.03 82.302C503.512 81.06 502.546 79.956 502.408 74.574V37.728H548.362V22.962H502.408V4.19399H484.606ZM672.213 99C677.733 99 683.391 97.62 688.221 93.756V99H706.161V22.824H688.221C688.221 22.824 688.083 73.746 687.945 74.574C687.945 79.956 686.979 81.06 685.461 82.302C683.943 83.544 681.597 84.234 678.975 84.234H640.059C637.299 84.234 634.953 83.544 633.435 82.302C632.055 81.06 630.951 79.956 630.951 74.574C630.951 72.228 630.951 31.794 630.951 22.824H612.873C612.873 28.896 612.735 68.364 613.011 74.436C613.149 76.506 613.287 78.714 613.701 80.784C614.943 85.89 617.565 90.306 621.153 93.342C625.983 97.482 632.055 99 637.713 99H672.213ZM741.572 22.824C730.394 22.824 716.87 30.276 716.87 45.732C716.87 61.326 730.67 68.226 741.572 68.226H784.766C792.08 68.226 793.874 72.78 793.874 76.23C793.874 79.68 792.356 84.234 784.766 84.234H744.608C737.156 84.234 735.5 79.542 735.5 75.678H717.698C717.698 90.858 730.256 99 742.4 99H786.974C798.152 99 811.676 91.686 811.676 76.23C811.676 60.636 797.738 53.46 786.974 53.46H743.78C736.328 53.46 734.672 49.182 734.672 45.732C734.672 42.282 736.19 37.59 743.78 37.59H783.524C788.354 37.59 792.218 40.626 792.08 46.284H809.882C809.882 31.932 798.29 22.824 785.594 22.824H741.572Z" fill="black" fill-opacity="0.03"/>
</svg>
