<svg width="1104" height="105" viewBox="0 0 1104 105" fill="none" xmlns="http://www.w3.org/2000/svg">
<path d="M25.056 13.196C19.398 13.196 13.326 14.714 8.35799 18.992C3.52798 23.132 0.353985 29.894 0.353985 37.76V79.574C0.353985 87.302 3.52798 94.064 8.35799 98.342C13.326 102.482 19.398 104 25.056 104H103.026C108.822 104 114.756 102.482 119.724 98.342C124.554 94.064 127.866 87.302 127.866 79.574V37.76C127.866 29.894 124.554 23.132 119.724 18.992C114.756 14.714 108.822 13.196 103.026 13.196H25.056ZM27.264 27.962H100.818C103.44 27.962 105.924 28.79 107.304 30.032C108.822 31.274 109.926 32.792 109.926 36.794V80.402C109.926 84.404 108.822 86.06 107.304 87.302C105.924 88.544 103.44 89.234 100.818 89.234H27.264C24.642 89.234 22.158 88.544 20.778 87.302C19.26 86.06 18.156 84.404 18.156 80.402V36.794C18.156 32.792 19.26 31.274 20.778 30.032C22.158 28.79 24.642 27.962 27.264 27.962ZM198.644 104C204.164 104 209.822 102.62 214.652 98.756V104H232.592V27.824H214.652C214.652 27.824 214.514 78.746 214.376 79.574C214.376 84.956 213.41 86.06 211.892 87.302C210.374 88.544 208.028 89.234 205.406 89.234H166.49C163.73 89.234 161.384 88.544 159.866 87.302C158.486 86.06 157.382 84.956 157.382 79.574C157.382 77.228 157.382 36.794 157.382 27.824H139.304C139.304 33.896 139.166 73.364 139.442 79.436C139.58 81.506 139.718 83.714 140.132 85.784C141.374 90.89 143.996 95.306 147.584 98.342C152.414 102.482 158.486 104 164.144 104H198.644ZM279.733 27.824C274.351 27.824 268.555 29.342 263.725 33.206V27.962H245.923V104H263.725C263.725 104 264.001 53.216 264.001 52.388C264.001 47.006 265.105 45.902 266.485 44.66C268.003 43.418 270.349 42.59 273.109 42.59H295.051C297.673 42.59 300.019 43.418 301.537 44.66C302.917 45.902 303.883 46.868 304.021 51.008H321.961C321.823 49.49 321.685 47.696 321.271 46.178C320.029 41.072 317.407 36.656 313.957 33.62C308.989 29.48 302.917 27.824 297.259 27.824H279.733ZM554.182 13.196L516.784 83.852L483.802 13.196H468.346L435.364 83.852L398.104 13.196H377.956L425.842 103.862V104H445.576L476.074 38.312L506.71 104H526.444L526.306 103.862L574.33 13.196H554.182ZM594.704 27.824C583.664 27.824 569.864 35.276 569.864 50.732V81.368C569.864 96.686 583.664 104.138 594.704 104.138H645.902C656.942 104.138 670.604 96.686 670.604 81.368V50.732C670.604 35.276 656.942 27.824 645.902 27.824H594.704ZM643.694 42.59C651.146 42.59 652.664 47.282 652.664 50.732V81.368C652.664 84.818 651.146 89.372 643.694 89.372H596.912C589.46 89.372 587.666 84.818 587.666 81.368V50.732C587.666 47.282 589.46 42.59 596.912 42.59H643.694ZM716.373 27.824C710.991 27.824 705.195 29.342 700.365 33.206V27.962H682.563V104H700.365C700.365 104 700.641 53.216 700.641 52.388C700.641 47.006 701.745 45.902 703.125 44.66C704.643 43.418 706.989 42.59 709.749 42.59H731.691C734.313 42.59 736.659 43.418 738.177 44.66C739.557 45.902 740.523 46.868 740.661 51.008H758.601C758.463 49.49 758.325 47.696 757.911 46.178C756.669 41.072 754.047 36.656 750.597 33.62C745.629 29.48 739.557 27.824 733.899 27.824H716.373ZM766.388 5.192V104H784.19V72.812H794.678L833.732 104.138H858.296L809.858 65.222L856.226 27.962H831.662L794.264 58.046H784.19V5.192H766.388ZM896.494 0.775996C890.836 0.775996 884.764 2.43199 879.796 6.572C876.208 9.46999 873.586 13.886 872.482 19.13C871.93 21.062 871.792 27.962 871.792 27.962H860.338V42.59H871.654V104H889.594V42.59H922.162V27.824H889.594C889.594 20.648 889.732 19.958 892.216 17.612C893.596 16.37 895.114 15.542 898.702 15.542H922.162V0.775996H896.494ZM929.724 5.192V104H947.526V5.192H929.724ZM984.176 27.824C973.136 27.824 959.336 35.276 959.336 50.732V81.368C959.336 96.686 973.136 104.138 984.176 104.138H1035.37C1046.41 104.138 1060.08 96.686 1060.08 81.368V50.732C1060.08 35.276 1046.41 27.824 1035.37 27.824H984.176ZM1033.17 42.59C1040.62 42.59 1042.14 47.282 1042.14 50.732V81.368C1042.14 84.818 1040.62 89.372 1033.17 89.372H986.384C978.932 89.372 977.138 84.818 977.138 81.368V50.732C977.138 47.282 978.932 42.59 986.384 42.59H1033.17ZM1062.71 27.962L1100.53 104H1120.54L1143.44 52.94L1166.21 104H1186.22L1224.17 27.962H1204.3L1176.43 85.37L1150.76 27.962H1136.13L1110.32 85.37L1082.45 27.962H1062.71Z" fill="black" fill-opacity="0.02"/>
</svg>
