<svg width="390" height="37" viewBox="0 0 390 37" fill="none" xmlns="http://www.w3.org/2000/svg">
<path opacity="0.03" d="M-12.2446 3.758C-14.2536 3.758 -16.4096 4.297 -18.1736 5.816C-19.8886 7.286 -21.0156 9.687 -21.0156 12.48V27.327C-21.0156 30.071 -19.8886 32.472 -18.1736 33.991C-16.4096 35.461 -14.2536 36 -12.2446 36H15.4404C17.4984 36 19.6054 35.461 21.3694 33.991C23.0844 32.472 24.2604 30.071 24.2604 27.327V12.48C24.2604 9.687 23.0844 7.286 21.3694 5.816C19.6054 4.297 17.4984 3.758 15.4404 3.758H-12.2446ZM-11.4606 9.001H14.6564C15.5874 9.001 16.4694 9.295 16.9594 9.736C17.4984 10.177 17.8904 10.716 17.8904 12.137V27.621C17.8904 29.042 17.4984 29.63 16.9594 30.071C16.4694 30.512 15.5874 30.757 14.6564 30.757H-11.4606C-12.3916 30.757 -13.2736 30.512 -13.7636 30.071C-14.3026 29.63 -14.6946 29.042 -14.6946 27.621V12.137C-14.6946 10.716 -14.3026 10.177 -13.7636 9.736C-13.2736 9.295 -12.3916 9.001 -11.4606 9.001ZM49.3917 36C51.3517 36 53.3607 35.51 55.0757 34.138V36H61.4457V8.952H55.0757C55.0757 8.952 55.0267 27.033 54.9777 27.327C54.9777 29.238 54.6347 29.63 54.0957 30.071C53.5567 30.512 52.7237 30.757 51.7927 30.757H37.9747C36.9947 30.757 36.1617 30.512 35.6227 30.071C35.1327 29.63 34.7407 29.238 34.7407 27.327C34.7407 26.494 34.7407 12.137 34.7407 8.952H28.3217C28.3217 11.108 28.2727 25.122 28.3707 27.278C28.4197 28.013 28.4687 28.797 28.6157 29.532C29.0567 31.345 29.9877 32.913 31.2617 33.991C32.9767 35.461 35.1327 36 37.1417 36H49.3917ZM78.1841 8.952C76.2731 8.952 74.2151 9.491 72.5001 10.863V9.001H66.1791V36H72.5001C72.5001 36 72.5981 17.968 72.5981 17.674C72.5981 15.763 72.9901 15.371 73.4801 14.93C74.0191 14.489 74.8521 14.195 75.8321 14.195H83.6231C84.5541 14.195 85.3871 14.489 85.9262 14.93C86.4161 15.371 86.7591 15.714 86.8081 17.184H93.1782C93.1292 16.645 93.0801 16.008 92.9332 15.469C92.4922 13.656 91.5612 12.088 90.3361 11.01C88.5721 9.54 86.4161 8.952 84.4071 8.952H78.1841ZM115.756 3.758V36H122.077V25.073H148.733C150.742 25.073 152.898 24.534 154.662 23.015C156.377 21.545 157.504 19.144 157.504 16.351V12.48C157.504 9.687 156.377 7.286 154.662 5.816C152.898 4.297 150.742 3.758 148.733 3.758H115.756ZM122.077 9.001H147.949C148.88 9.001 149.713 9.295 150.252 9.736C150.742 10.177 151.134 10.716 151.134 12.137V16.694C151.134 18.115 150.742 18.654 150.252 19.095C149.713 19.536 148.88 19.83 147.949 19.83H122.077V9.001ZM172.882 8.952C170.971 8.952 168.913 9.491 167.198 10.863V9.001H160.877V36H167.198C167.198 36 167.296 17.968 167.296 17.674C167.296 15.763 167.688 15.371 168.178 14.93C168.717 14.489 169.55 14.195 170.53 14.195H178.321C179.252 14.195 180.085 14.489 180.624 14.93C181.114 15.371 181.457 15.714 181.506 17.184H187.876C187.827 16.645 187.778 16.008 187.631 15.469C187.19 13.656 186.259 12.088 185.034 11.01C183.27 9.54 181.114 8.952 179.105 8.952H172.882ZM198.922 8.952C195.002 8.952 190.102 11.598 190.102 17.086V27.964C190.102 33.403 195.002 36.049 198.922 36.049H217.101C221.021 36.049 225.872 33.403 225.872 27.964V17.086C225.872 11.598 221.021 8.952 217.101 8.952H198.922ZM216.317 14.195C218.963 14.195 219.502 15.861 219.502 17.086V27.964C219.502 29.189 218.963 30.806 216.317 30.806H199.706C197.06 30.806 196.423 29.189 196.423 27.964V17.086C196.423 15.861 197.06 14.195 199.706 14.195H216.317ZM252.414 36.049C254.325 36.049 256.383 35.461 258.049 34.236V36H264.37V0.867L258.049 0.915999V10.765C256.383 9.589 254.325 8.952 252.414 8.952H238.4C234.48 8.952 229.58 11.598 229.58 17.086V27.964C229.58 33.403 234.48 36.049 238.4 36.049H252.414ZM235.901 27.964V17.086C235.901 15.861 236.538 14.195 239.233 14.195H254.815C257.51 14.195 258.049 15.861 258.049 17.086V27.964C258.049 29.189 257.51 30.806 254.815 30.806H239.233C236.538 30.806 235.901 29.189 235.901 27.964ZM289.894 36C291.854 36 293.863 35.51 295.578 34.138V36H301.948V8.952H295.578C295.578 8.952 295.529 27.033 295.48 27.327C295.48 29.238 295.137 29.63 294.598 30.071C294.059 30.512 293.226 30.757 292.295 30.757H278.477C277.497 30.757 276.664 30.512 276.125 30.071C275.635 29.63 275.243 29.238 275.243 27.327C275.243 26.494 275.243 12.137 275.243 8.952H268.824C268.824 11.108 268.775 25.122 268.873 27.278C268.922 28.013 268.971 28.797 269.118 29.532C269.559 31.345 270.49 32.913 271.764 33.991C273.479 35.461 275.635 36 277.644 36H289.894ZM314.962 8.952C311.042 8.952 306.142 11.598 306.142 17.086V27.964C306.142 33.403 311.042 36.049 314.962 36.049H333.141C337.061 36.049 341.912 33.403 341.912 27.964H335.542C335.542 29.189 335.003 30.806 332.357 30.806H315.746C313.1 30.806 312.463 29.189 312.463 27.964V17.086C312.463 15.861 313.1 14.195 315.746 14.195H332.357C335.003 14.195 335.542 15.861 335.542 17.086H341.912C341.912 11.598 337.061 8.952 333.141 8.952H314.962ZM347.694 2.337V9.001H343.627V14.244H347.694V27.278C347.694 27.278 347.743 28.797 347.939 29.532C348.331 31.345 349.262 32.913 350.536 33.991C352.3 35.461 354.456 36.049 356.465 36.049H361.512C363.521 36.049 365.677 35.461 367.392 33.991C368.666 32.913 369.597 31.345 370.038 29.532C370.136 29.091 370.185 28.405 370.234 27.915H363.913C363.815 29.336 363.472 29.679 363.031 30.071C362.492 30.512 361.659 30.757 360.728 30.757H357.249C356.318 30.757 355.436 30.512 354.946 30.071C354.407 29.63 354.064 29.238 354.015 27.327V14.244H370.332V9.001H354.015V2.337H347.694ZM381.657 8.952C377.688 8.952 372.886 11.598 372.886 17.086C372.886 22.623 377.786 25.073 381.657 25.073H396.994C399.591 25.073 400.228 26.69 400.228 27.915C400.228 29.14 399.689 30.757 396.994 30.757H382.735C380.089 30.757 379.501 29.091 379.501 27.719H373.18C373.18 33.109 377.639 36 381.951 36H397.778C401.747 36 406.549 33.403 406.549 27.915C406.549 22.378 401.6 19.83 397.778 19.83H382.441C379.795 19.83 379.207 18.311 379.207 17.086C379.207 15.861 379.746 14.195 382.441 14.195H396.553C398.268 14.195 399.64 15.273 399.591 17.282H405.912C405.912 12.186 401.796 8.952 397.288 8.952H381.657Z" fill="#1A1F28"/>
</svg>
