<svg width="821" height="254" viewBox="0 0 821 254" fill="none" xmlns="http://www.w3.org/2000/svg">
<path opacity="0.75" d="M25.222 0.195993C19.564 0.195993 13.492 1.714 8.524 5.99199C3.694 10.132 0.52 16.894 0.52 24.76V66.574C0.52 74.302 3.694 81.064 8.524 85.342C13.492 89.482 19.564 91 25.222 91H103.192C108.988 91 114.922 89.482 119.89 85.342C124.72 81.064 128.032 74.302 128.032 66.574V24.76C128.032 16.894 124.72 10.132 119.89 5.99199C114.922 1.714 108.988 0.195993 103.192 0.195993H25.222ZM27.43 14.962H100.984C103.606 14.962 106.09 15.79 107.47 17.032C108.988 18.274 110.092 19.792 110.092 23.794V67.402C110.092 71.404 108.988 73.06 107.47 74.302C106.09 75.544 103.606 76.234 100.984 76.234H27.43C24.808 76.234 22.324 75.544 20.944 74.302C19.426 73.06 18.322 71.404 18.322 67.402V23.794C18.322 19.792 19.426 18.274 20.944 17.032C22.324 15.79 24.808 14.962 27.43 14.962ZM198.81 91C204.33 91 209.988 89.62 214.818 85.756V91H232.758V14.824H214.818C214.818 14.824 214.68 65.746 214.542 66.574C214.542 71.956 213.576 73.06 212.058 74.302C210.54 75.544 208.194 76.234 205.572 76.234H166.656C163.896 76.234 161.55 75.544 160.032 74.302C158.652 73.06 157.548 71.956 157.548 66.574C157.548 64.228 157.548 23.794 157.548 14.824H139.47C139.47 20.896 139.332 60.364 139.608 66.436C139.746 68.506 139.884 70.714 140.298 72.784C141.54 77.89 144.162 82.306 147.75 85.342C152.58 89.482 158.652 91 164.31 91H198.81ZM279.899 14.824C274.517 14.824 268.721 16.342 263.891 20.206V14.962H246.089V91H263.891C263.891 91 264.167 40.216 264.167 39.388C264.167 34.006 265.271 32.902 266.651 31.66C268.169 30.418 270.515 29.59 273.275 29.59H295.217C297.839 29.59 300.185 30.418 301.703 31.66C303.083 32.902 304.049 33.868 304.187 38.008H322.127C321.989 36.49 321.851 34.696 321.437 33.178C320.195 28.072 317.573 23.656 314.123 20.62C309.155 16.48 303.083 14.824 297.425 14.824H279.899ZM1.9 162.196V253H19.702V222.226H94.774C100.432 222.226 106.504 220.708 111.472 216.43C116.302 212.29 119.476 205.528 119.476 197.662V186.76C119.476 178.894 116.302 172.132 111.472 167.992C106.504 163.714 100.432 162.196 94.774 162.196H1.9ZM19.702 176.962H92.566C95.188 176.962 97.534 177.79 99.052 179.032C100.432 180.274 101.536 181.792 101.536 185.794V198.628C101.536 202.63 100.432 204.148 99.052 205.39C97.534 206.632 95.188 207.46 92.566 207.46H19.702V176.962ZM162.788 176.824C157.406 176.824 151.61 178.342 146.78 182.206V176.962H128.978V253H146.78C146.78 253 147.056 202.216 147.056 201.388C147.056 196.006 148.16 194.902 149.54 193.66C151.058 192.418 153.404 191.59 156.164 191.59H178.106C180.728 191.59 183.074 192.418 184.592 193.66C185.972 194.902 186.938 195.868 187.076 200.008H205.016C204.878 198.49 204.74 196.696 204.326 195.178C203.084 190.072 200.462 185.656 197.012 182.62C192.044 178.48 185.972 176.824 180.314 176.824H162.788ZM236.124 176.824C225.084 176.824 211.284 184.276 211.284 199.732V230.368C211.284 245.686 225.084 253.138 236.124 253.138H287.322C298.362 253.138 312.024 245.686 312.024 230.368V199.732C312.024 184.276 298.362 176.824 287.322 176.824H236.124ZM285.114 191.59C292.566 191.59 294.084 196.282 294.084 199.732V230.368C294.084 233.818 292.566 238.372 285.114 238.372H238.332C230.88 238.372 229.086 233.818 229.086 230.368V199.732C229.086 196.282 230.88 191.59 238.332 191.59H285.114ZM386.773 253.138C392.155 253.138 397.951 251.482 402.643 248.032V253H420.445V154.054L402.643 154.192V181.93C397.951 178.618 392.155 176.824 386.773 176.824H347.305C336.265 176.824 322.465 184.276 322.465 199.732V230.368C322.465 245.686 336.265 253.138 347.305 253.138H386.773ZM340.267 230.368V199.732C340.267 196.282 342.061 191.59 349.651 191.59H393.535C401.125 191.59 402.643 196.282 402.643 199.732V230.368C402.643 233.818 401.125 238.372 393.535 238.372H349.651C342.061 238.372 340.267 233.818 340.267 230.368ZM492.329 253C497.849 253 503.507 251.62 508.337 247.756V253H526.277V176.824H508.337C508.337 176.824 508.199 227.746 508.061 228.574C508.061 233.956 507.095 235.06 505.577 236.302C504.059 237.544 501.713 238.234 499.091 238.234H460.175C457.415 238.234 455.069 237.544 453.551 236.302C452.171 235.06 451.067 233.956 451.067 228.574C451.067 226.228 451.067 185.794 451.067 176.824H432.989C432.989 182.896 432.851 222.364 433.127 228.436C433.265 230.506 433.403 232.714 433.817 234.784C435.059 239.89 437.681 244.306 441.269 247.342C446.099 251.482 452.171 253 457.829 253H492.329ZM562.93 176.824C551.89 176.824 538.09 184.276 538.09 199.732V230.368C538.09 245.686 551.89 253.138 562.93 253.138H614.128C625.168 253.138 638.83 245.686 638.83 230.368H620.89C620.89 233.818 619.372 238.372 611.92 238.372H565.138C557.686 238.372 555.892 233.818 555.892 230.368V199.732C555.892 196.282 557.686 191.59 565.138 191.59H611.92C619.372 191.59 620.89 196.282 620.89 199.732H638.83C638.83 184.276 625.168 176.824 614.128 176.824H562.93ZM655.113 158.194V176.962H643.659V191.728H655.113V228.436C655.113 228.436 655.251 232.714 655.803 234.784C656.907 239.89 659.529 244.306 663.117 247.342C668.085 251.482 674.157 253.138 679.815 253.138H694.029C699.687 253.138 705.759 251.482 710.589 247.342C714.177 244.306 716.799 239.89 718.041 234.784C718.317 233.542 718.455 231.61 718.593 230.23H700.791C700.515 234.232 699.549 235.198 698.307 236.302C696.789 237.544 694.443 238.234 691.821 238.234H682.023C679.401 238.234 676.917 237.544 675.537 236.302C674.019 235.06 673.053 233.956 672.915 228.574V191.728H718.869V176.962H672.915V158.194H655.113ZM750.765 176.824C739.587 176.824 726.063 184.276 726.063 199.732C726.063 215.326 739.863 222.226 750.765 222.226H793.959C801.273 222.226 803.067 226.78 803.067 230.23C803.067 233.68 801.549 238.234 793.959 238.234H753.801C746.349 238.234 744.693 233.542 744.693 229.678H726.891C726.891 244.858 739.449 253 751.593 253H796.167C807.345 253 820.869 245.686 820.869 230.23C820.869 214.636 806.931 207.46 796.167 207.46H752.973C745.521 207.46 743.865 203.182 743.865 199.732C743.865 196.282 745.383 191.59 752.973 191.59H792.717C797.547 191.59 801.411 194.626 801.273 200.284H819.075C819.075 185.932 807.483 176.824 794.787 176.824H750.765Z" fill="black" fill-opacity="0.03"/>
</svg>
