<svg width="390" height="37" viewBox="0 0 390 37" fill="none" xmlns="http://www.w3.org/2000/svg">
<path opacity="0.03" d="M49.1381 3.758L35.8591 28.846L24.1481 3.758H18.6601L6.94906 28.846L-6.28094 3.758H-13.4349L3.56806 35.951V36H10.5751L21.4041 12.676L32.2821 36H39.2891L39.2401 35.951L56.2921 3.758H49.1381ZM58.4511 0.915999V36H64.7721C64.7721 36 64.8701 17.968 64.8701 17.674C64.8701 15.763 65.2621 15.371 65.7521 14.93C66.2911 14.489 67.1241 14.195 68.1041 14.195H81.9221C82.8531 14.195 83.6861 14.489 84.2251 14.93C84.7641 15.371 85.1071 15.763 85.1071 17.674C85.1071 18.507 85.1071 32.864 85.1071 36H91.5261C91.5751 33.893 91.6241 19.879 91.4771 17.723C91.4281 16.939 91.3791 16.204 91.2321 15.469C90.7911 13.656 89.8601 12.088 88.6351 11.01C86.8711 9.54 84.7151 8.952 82.7061 8.952H70.4561C68.5451 8.952 66.4871 9.491 64.7721 10.863V0.915999H58.4511ZM104.296 8.952C100.376 8.952 95.4756 11.598 95.4756 17.086V27.964C95.4756 33.403 100.376 36.049 104.296 36.049H122.475C126.395 36.049 131.246 33.403 131.246 27.964V17.086C131.246 11.598 126.395 8.952 122.475 8.952H104.296ZM121.691 14.195C124.337 14.195 124.876 15.861 124.876 17.086V27.964C124.876 29.189 124.337 30.806 121.691 30.806H105.08C102.434 30.806 101.797 29.189 101.797 27.964V17.086C101.797 15.861 102.434 14.195 105.08 14.195H121.691ZM215.183 3.758L201.904 28.846L190.193 3.758H184.705L172.994 28.846L159.764 3.758H152.61L169.613 35.951V36H176.62L187.449 12.676L198.327 36H205.334L205.285 35.951L222.337 3.758H215.183ZM229.571 8.952C225.651 8.952 220.751 11.598 220.751 17.037V27.964C220.751 33.403 225.651 36.049 229.571 36.049H247.75C251.67 36.049 256.521 33.403 256.521 27.964H250.151C250.151 29.14 249.612 30.806 246.966 30.806H230.355C227.709 30.806 227.072 29.14 227.072 27.964V24.975H256.521V17.037C256.521 11.598 251.67 8.952 247.75 8.952H229.571ZM246.966 14.195C249.612 14.195 250.151 15.861 250.151 17.037V19.781H227.072V17.037C227.072 15.861 227.709 14.195 230.355 14.195H246.966ZM300.869 3.758L277.79 36H285.581L290.922 28.552H316.059L321.4 36H329.24L306.161 3.758H300.869ZM303.515 10.961L312.335 23.309H294.695L303.515 10.961ZM343.401 8.952C341.49 8.952 339.432 9.491 337.717 10.863V9.001H331.396V36H337.717C337.717 36 337.815 17.968 337.815 17.674C337.815 15.763 338.207 15.371 338.697 14.93C339.236 14.489 340.069 14.195 341.049 14.195H348.84C349.771 14.195 350.604 14.489 351.143 14.93C351.633 15.371 351.976 15.714 352.025 17.184H358.395C358.346 16.645 358.297 16.008 358.15 15.469C357.709 13.656 356.778 12.088 355.553 11.01C353.789 9.54 351.633 8.952 349.624 8.952H343.401ZM369.441 8.952C365.521 8.952 360.621 11.598 360.621 17.037V27.964C360.621 33.403 365.521 36.049 369.441 36.049H387.62C391.54 36.049 396.391 33.403 396.391 27.964H390.021C390.021 29.14 389.482 30.806 386.836 30.806H370.225C367.579 30.806 366.942 29.14 366.942 27.964V24.975H396.391V17.037C396.391 11.598 391.54 8.952 387.62 8.952H369.441ZM386.836 14.195C389.482 14.195 390.021 15.861 390.021 17.037V19.781H366.942V17.037C366.942 15.861 367.579 14.195 370.225 14.195H386.836Z" fill="#1A1F28"/>
</svg>
