<svg width="1274" height="227" viewBox="0 0 1274 227" fill="none" xmlns="http://www.w3.org/2000/svg">
<path d="M176.538 8.19599L139.14 78.852L106.158 8.19599H90.702L57.72 78.852L20.46 8.19599H0.311953L48.198 98.862V99H67.932L98.43 33.312L129.066 99H148.8L148.662 98.862L196.686 8.19599H176.538ZM202.767 0.191997V99H220.569C220.569 99 220.845 48.216 220.845 47.388C220.845 42.006 221.949 40.902 223.329 39.66C224.847 38.418 227.193 37.59 229.953 37.59H268.869C271.491 37.59 273.837 38.418 275.355 39.66C276.873 40.902 277.839 42.006 277.839 47.388C277.839 49.734 277.839 90.168 277.839 99H295.917C296.055 93.066 296.193 53.598 295.779 47.526C295.641 45.318 295.503 43.248 295.089 41.178C293.847 36.072 291.225 31.656 287.775 28.62C282.807 24.48 276.735 22.824 271.077 22.824H236.577C231.195 22.824 225.399 24.342 220.569 28.206V0.191997H202.767ZM331.88 22.824C320.84 22.824 307.04 30.276 307.04 45.732V76.368C307.04 91.686 320.84 99.138 331.88 99.138H383.078C394.118 99.138 407.78 91.686 407.78 76.368V45.732C407.78 30.276 394.118 22.824 383.078 22.824H331.88ZM380.87 37.59C388.322 37.59 389.84 42.282 389.84 45.732V76.368C389.84 79.818 388.322 84.372 380.87 84.372H334.088C326.636 84.372 324.842 79.818 324.842 76.368V45.732C324.842 42.282 326.636 37.59 334.088 37.59H380.87ZM644.175 8.19599L606.777 78.852L573.795 8.19599H558.339L525.357 78.852L488.097 8.19599H467.949L515.835 98.862V99H535.569L566.067 33.312L596.703 99H616.437L616.299 98.862L664.323 8.19599H644.175ZM684.696 22.824C673.656 22.824 659.856 30.276 659.856 45.594V76.368C659.856 91.686 673.656 99.138 684.696 99.138H735.894C746.934 99.138 760.596 91.686 760.596 76.368H742.656C742.656 79.68 741.138 84.372 733.686 84.372H686.904C679.452 84.372 677.658 79.68 677.658 76.368V67.95H760.596V45.594C760.596 30.276 746.934 22.824 735.894 22.824H684.696ZM733.686 37.59C741.138 37.59 742.656 42.282 742.656 45.594V53.322H677.658V45.594C677.658 42.282 679.452 37.59 686.904 37.59H733.686ZM821.048 22.962L858.86 99H878.87L901.778 47.94L924.548 99H944.558L982.508 22.962H962.636L934.76 80.37L909.092 22.962H894.464L868.658 80.37L840.782 22.962H821.048ZM1010.02 22.824C998.98 22.824 985.18 30.276 985.18 45.732V76.368C985.18 91.686 998.98 99.138 1010.02 99.138H1061.22C1072.26 99.138 1085.92 91.686 1085.92 76.368V45.732C1085.92 30.276 1072.26 22.824 1061.22 22.824H1010.02ZM1059.01 37.59C1066.46 37.59 1067.98 42.282 1067.98 45.732V76.368C1067.98 79.818 1066.46 84.372 1059.01 84.372H1012.23C1004.78 84.372 1002.98 79.818 1002.98 76.368V45.732C1002.98 42.282 1004.78 37.59 1012.23 37.59H1059.01ZM1131.69 22.824C1126.31 22.824 1120.51 24.342 1115.68 28.206V22.962H1097.88V99H1115.68C1115.68 99 1115.96 48.216 1115.96 47.388C1115.96 42.006 1117.06 40.902 1118.44 39.66C1119.96 38.418 1122.31 37.59 1125.07 37.59H1147.01C1149.63 37.59 1151.98 38.418 1153.49 39.66C1154.87 40.902 1155.84 41.868 1155.98 46.008H1173.92C1173.78 44.49 1173.64 42.696 1173.23 41.178C1171.99 36.072 1169.36 31.656 1165.91 28.62C1160.95 24.48 1154.87 22.824 1149.22 22.824H1131.69ZM1181.7 0.191997V99H1199.51V67.812H1209.99L1249.05 99.138H1273.61L1225.17 60.222L1271.54 22.962H1246.98L1209.58 53.046H1199.51V0.191997H1181.7ZM448.353 149.962L486.165 226H506.175L529.083 174.94L551.853 226H571.863L609.813 149.962H589.941L562.065 207.37L536.397 149.962H521.769L495.963 207.37L468.087 149.962H448.353ZM616.43 127.192V141.958H634.232V127.192H616.43ZM616.43 149.962V226H634.232V149.962H616.43ZM653.771 131.194V149.962H642.317V164.728H653.771V201.436C653.771 201.436 653.909 205.714 654.461 207.784C655.565 212.89 658.187 217.306 661.775 220.342C666.743 224.482 672.815 226.138 678.473 226.138H692.687C698.345 226.138 704.417 224.482 709.247 220.342C712.835 217.306 715.457 212.89 716.699 207.784C716.975 206.542 717.113 204.61 717.251 203.23H699.449C699.173 207.232 698.207 208.198 696.965 209.302C695.447 210.544 693.101 211.234 690.479 211.234H680.681C678.059 211.234 675.575 210.544 674.195 209.302C672.677 208.06 671.711 206.956 671.573 201.574V164.728H717.527V149.962H671.573V131.194H653.771ZM727.342 127.192V226H745.144C745.144 226 745.42 175.216 745.42 174.388C745.42 169.006 746.524 167.902 747.904 166.66C749.422 165.418 751.768 164.59 754.528 164.59H793.444C796.066 164.59 798.412 165.418 799.93 166.66C801.448 167.902 802.414 169.006 802.414 174.388C802.414 176.734 802.414 217.168 802.414 226H820.492C820.63 220.066 820.768 180.598 820.354 174.526C820.216 172.318 820.078 170.248 819.664 168.178C818.422 163.072 815.8 158.656 812.35 155.62C807.382 151.48 801.31 149.824 795.652 149.824H761.152C755.77 149.824 749.974 151.342 745.144 155.206V127.192H727.342Z" fill="black" fill-opacity="0.02"/>
</svg>
