<svg width="761" height="227" viewBox="0 0 761 227" fill="none" xmlns="http://www.w3.org/2000/svg">
<path d="M176.706 8.19599L139.308 78.852L106.326 8.19599H90.8699L57.8879 78.852L20.6279 8.19599H0.479922L48.3659 98.862V99H68.0999L98.5979 33.312L129.234 99H148.968L148.83 98.862L196.854 8.19599H176.706ZM202.935 0.191997V99H220.737C220.737 99 221.013 48.216 221.013 47.388C221.013 42.006 222.117 40.902 223.497 39.66C225.015 38.418 227.361 37.59 230.121 37.59H269.037C271.659 37.59 274.005 38.418 275.523 39.66C277.041 40.902 278.007 42.006 278.007 47.388C278.007 49.734 278.007 90.168 278.007 99H296.085C296.223 93.066 296.361 53.598 295.947 47.526C295.809 45.318 295.671 43.248 295.257 41.178C294.015 36.072 291.393 31.656 287.943 28.62C282.975 24.48 276.903 22.824 271.245 22.824H236.745C231.363 22.824 225.567 24.342 220.737 28.206V0.191997H202.935ZM332.048 22.824C321.008 22.824 307.208 30.276 307.208 45.732V76.368C307.208 91.686 321.008 99.138 332.048 99.138H383.246C394.286 99.138 407.948 91.686 407.948 76.368V45.732C407.948 30.276 394.286 22.824 383.246 22.824H332.048ZM381.038 37.59C388.49 37.59 390.008 42.282 390.008 45.732V76.368C390.008 79.818 388.49 84.372 381.038 84.372H334.256C326.804 84.372 325.01 79.818 325.01 76.368V45.732C325.01 42.282 326.804 37.59 334.256 37.59H381.038ZM644.343 8.19599L606.945 78.852L573.963 8.19599H558.507L525.525 78.852L488.265 8.19599H468.117L516.003 98.862V99H535.737L566.235 33.312L596.871 99H616.605L616.467 98.862L664.491 8.19599H644.343ZM684.864 22.824C673.824 22.824 660.024 30.276 660.024 45.594V76.368C660.024 91.686 673.824 99.138 684.864 99.138H736.062C747.102 99.138 760.764 91.686 760.764 76.368H742.824C742.824 79.68 741.306 84.372 733.854 84.372H687.072C679.62 84.372 677.826 79.68 677.826 76.368V67.95H760.764V45.594C760.764 30.276 747.102 22.824 736.062 22.824H684.864ZM733.854 37.59C741.306 37.59 742.824 42.282 742.824 45.594V53.322H677.826V45.594C677.826 42.282 679.62 37.59 687.072 37.59H733.854ZM278.61 135.196L213.612 226H235.554L250.596 205.024H321.39L336.432 226H358.512L293.514 135.196H278.61ZM286.062 155.482L310.902 190.258H261.222L286.062 155.482ZM398.396 149.824C393.014 149.824 387.218 151.342 382.388 155.206V149.962H364.586V226H382.388C382.388 226 382.664 175.216 382.664 174.388C382.664 169.006 383.768 167.902 385.148 166.66C386.666 165.418 389.012 164.59 391.772 164.59H413.714C416.336 164.59 418.682 165.418 420.2 166.66C421.58 167.902 422.546 168.868 422.684 173.008H440.624C440.486 171.49 440.348 169.696 439.934 168.178C438.692 163.072 436.07 158.656 432.62 155.62C427.652 151.48 421.58 149.824 415.922 149.824H398.396ZM471.732 149.824C460.692 149.824 446.892 157.276 446.892 172.594V203.368C446.892 218.686 460.692 226.138 471.732 226.138H522.93C533.97 226.138 547.632 218.686 547.632 203.368H529.692C529.692 206.68 528.174 211.372 520.722 211.372H473.94C466.488 211.372 464.694 206.68 464.694 203.368V194.95H547.632V172.594C547.632 157.276 533.97 149.824 522.93 149.824H471.732ZM520.722 164.59C528.174 164.59 529.692 169.282 529.692 172.594V180.322H464.694V172.594C464.694 169.282 466.488 164.59 473.94 164.59H520.722Z" fill="black" fill-opacity="0.03"/>
</svg>
