<svg width="947" height="227" viewBox="0 0 947 227" fill="none" xmlns="http://www.w3.org/2000/svg">
<path d="M434.816 8.19599L397.418 78.852L364.436 8.19599H348.98L315.998 78.852L278.738 8.19599H258.59L306.476 98.862V99H326.21L356.708 33.312L387.344 99H407.078L406.94 98.862L454.964 8.19599H434.816ZM461.045 0.191997V99H478.847C478.847 99 479.123 48.216 479.123 47.388C479.123 42.006 480.227 40.902 481.607 39.66C483.125 38.418 485.471 37.59 488.231 37.59H527.147C529.769 37.59 532.115 38.418 533.633 39.66C535.151 40.902 536.117 42.006 536.117 47.388C536.117 49.734 536.117 90.168 536.117 99H554.195C554.333 93.066 554.471 53.598 554.057 47.526C553.919 45.318 553.781 43.248 553.367 41.178C552.125 36.072 549.503 31.656 546.053 28.62C541.085 24.48 535.013 22.824 529.355 22.824H494.855C489.473 22.824 483.677 24.342 478.847 28.206V0.191997H461.045ZM566.008 22.824V76.23C566.008 91.686 579.808 99 590.848 99H630.316C635.698 99 641.494 97.344 646.186 94.032V108.936C646.186 110.592 644.668 115.284 637.078 115.284H594.436C586.984 115.284 585.328 110.592 585.328 107.28H567.526C567.526 122.598 581.05 130.05 592.228 130.05H639.286C650.464 130.05 663.988 122.598 663.988 107.28V22.824H646.186V76.23C646.186 79.68 644.53 84.234 637.078 84.234H593.056C585.604 84.234 583.81 79.68 583.81 76.23V22.824H566.008ZM9.45931 135.196C3.80131 135.196 -2.27069 136.714 -7.23869 140.992C-12.0687 145.132 -15.2427 151.894 -15.2427 159.76V201.574C-15.2427 209.302 -12.0687 216.064 -7.23869 220.342C-2.27069 224.482 3.80131 226 9.45931 226H87.4293C93.2253 226 99.1593 224.482 104.127 220.342C109.095 216.064 112.269 209.302 112.269 201.574L111.993 195.226H94.3293V202.402C94.3293 206.404 93.2253 208.06 91.7073 209.302C90.3273 210.544 87.8433 211.234 85.2213 211.234H11.6673C9.04531 211.234 6.56131 210.544 5.18131 209.302C3.6633 208.06 2.55931 206.404 2.55931 202.402V158.794C2.55931 154.792 3.6633 153.274 5.18131 152.032C6.56131 150.79 9.04531 149.962 11.6673 149.962H85.2213C87.8433 149.962 90.3273 150.79 91.7073 152.032C93.2253 153.274 94.3293 154.792 94.3293 158.794V165.97H111.993L112.269 159.76C112.269 151.894 109.095 145.132 104.127 140.854C99.1593 136.714 93.2253 135.196 87.4293 135.196H9.45931ZM123.053 127.192V226H140.855C140.855 226 141.131 175.216 141.131 174.388C141.131 169.006 142.235 167.902 143.615 166.66C145.133 165.418 147.479 164.59 150.239 164.59H189.155C191.777 164.59 194.123 165.418 195.641 166.66C197.159 167.902 198.125 169.006 198.125 174.388C198.125 176.734 198.125 217.168 198.125 226H216.203C216.341 220.066 216.479 180.598 216.065 174.526C215.927 172.318 215.789 170.248 215.375 168.178C214.133 163.072 211.511 158.656 208.061 155.62C203.093 151.48 197.021 149.824 191.363 149.824H156.863C151.481 149.824 145.685 151.342 140.855 155.206V127.192H123.053ZM252.166 149.824C241.126 149.824 227.326 157.276 227.326 172.732V203.368C227.326 218.686 241.126 226.138 252.166 226.138H303.364C314.404 226.138 328.066 218.686 328.066 203.368V172.732C328.066 157.276 314.404 149.824 303.364 149.824H252.166ZM301.156 164.59C308.608 164.59 310.126 169.282 310.126 172.732V203.368C310.126 206.818 308.608 211.372 301.156 211.372H254.374C246.922 211.372 245.128 206.818 245.128 203.368V172.732C245.128 169.282 246.922 164.59 254.374 164.59H301.156ZM363.347 149.824C352.307 149.824 338.507 157.276 338.507 172.732V203.368C338.507 218.686 352.307 226.138 363.347 226.138H414.545C425.585 226.138 439.247 218.686 439.247 203.368V172.732C439.247 157.276 425.585 149.824 414.545 149.824H363.347ZM412.337 164.59C419.789 164.59 421.307 169.282 421.307 172.732V203.368C421.307 206.818 419.789 211.372 412.337 211.372H365.555C358.103 211.372 356.309 206.818 356.309 203.368V172.732C356.309 169.282 358.103 164.59 365.555 164.59H412.337ZM473.287 149.824C462.109 149.824 448.585 157.276 448.585 172.732C448.585 188.326 462.385 195.226 473.287 195.226H516.481C523.795 195.226 525.589 199.78 525.589 203.23C525.589 206.68 524.071 211.234 516.481 211.234H476.323C468.871 211.234 467.215 206.542 467.215 202.678H449.413C449.413 217.858 461.971 226 474.115 226H518.689C529.867 226 543.391 218.686 543.391 203.23C543.391 187.636 529.453 180.46 518.689 180.46H475.495C468.043 180.46 466.387 176.182 466.387 172.732C466.387 169.282 467.905 164.59 475.495 164.59H515.239C520.069 164.59 523.933 167.626 523.795 173.284H541.597C541.597 158.932 530.005 149.824 517.309 149.824H473.287ZM577.355 149.824C566.315 149.824 552.515 157.276 552.515 172.594V203.368C552.515 218.686 566.315 226.138 577.355 226.138H628.553C639.593 226.138 653.255 218.686 653.255 203.368H635.315C635.315 206.68 633.797 211.372 626.345 211.372H579.563C572.111 211.372 570.317 206.68 570.317 203.368V194.95H653.255V172.594C653.255 157.276 639.593 149.824 628.553 149.824H577.355ZM626.345 164.59C633.797 164.59 635.315 169.282 635.315 172.594V180.322H570.317V172.594C570.317 169.282 572.111 164.59 579.563 164.59H626.345ZM720.055 135.196V201.574C720.055 209.302 723.229 216.064 728.059 220.342C733.027 224.482 739.099 226 744.757 226H816.931C822.727 226 828.661 224.482 833.629 220.342C838.459 216.064 841.771 209.302 841.771 201.574V135.196H823.831V202.402C823.831 206.404 822.727 208.06 821.209 209.302C819.829 210.544 817.345 211.234 814.723 211.234H746.965C744.343 211.234 741.859 210.544 740.479 209.302C738.961 208.06 737.857 206.404 737.857 202.402C737.857 202.402 737.857 148.03 737.857 135.196H720.055ZM876.641 149.824C865.463 149.824 851.939 157.276 851.939 172.732C851.939 188.326 865.739 195.226 876.641 195.226H919.835C927.149 195.226 928.943 199.78 928.943 203.23C928.943 206.68 927.425 211.234 919.835 211.234H879.677C872.225 211.234 870.569 206.542 870.569 202.678H852.767C852.767 217.858 865.325 226 877.469 226H922.043C933.221 226 946.745 218.686 946.745 203.23C946.745 187.636 932.807 180.46 922.043 180.46H878.849C871.397 180.46 869.741 176.182 869.741 172.732C869.741 169.282 871.259 164.59 878.849 164.59H918.593C923.423 164.59 927.287 167.626 927.149 173.284H944.951C944.951 158.932 933.359 149.824 920.663 149.824H876.641Z" fill="black" fill-opacity="0.02"/>
</svg>
