<svg width="118" height="118" viewBox="0 0 118 118" fill="none" xmlns="http://www.w3.org/2000/svg">
<path d="M104.474 78.8947V36.2631L68.9475 16.2803M49.0527 16.2803L13.5264 36.2631V78.8947M22.0527 92.2185L59.0001 113L81.7369 100.211L95.9475 92.2157M59.0001 41.9473V22.0526M76.0527 70.3684L95.9475 81.7368M41.9474 70.3684L22.0527 81.7368M50.4738 46.921L41.9474 51.8947V71.7895L50.4738 76.7632L59.0001 81.7368L67.5264 76.7632L76.0527 71.7895V51.8947L67.5264 46.921L59.0001 41.9473L50.4738 46.921Z" stroke="#FE621D" stroke-width="9" stroke-linecap="round" stroke-linejoin="round"/>
<path d="M59 22.0526C63.7089 22.0526 67.5263 18.2353 67.5263 13.5263C67.5263 8.81736 63.7089 5 59 5C54.291 5 50.4736 8.81736 50.4736 13.5263C50.4736 18.2353 54.291 22.0526 59 22.0526Z" stroke="#FE621D" stroke-width="9" stroke-linecap="round" stroke-linejoin="round"/>
<path d="M13.5263 95.9477C18.2353 95.9477 22.0526 92.1303 22.0526 87.4213C22.0526 82.7124 18.2353 78.895 13.5263 78.895C8.81736 78.895 5 82.7124 5 87.4213C5 92.1303 8.81736 95.9477 13.5263 95.9477Z" stroke="#FE621D" stroke-width="9" stroke-linecap="round" stroke-linejoin="round"/>
<path d="M104.474 95.9477C109.183 95.9477 113 92.1303 113 87.4213C113 82.7124 109.183 78.895 104.474 78.895C99.7646 78.895 95.9473 82.7124 95.9473 87.4213C95.9473 92.1303 99.7646 95.9477 104.474 95.9477Z" stroke="#FE621D" stroke-width="9" stroke-linecap="round" stroke-linejoin="round"/>
</svg>
