<svg width="86" height="108" viewBox="0 0 86 108" fill="none" xmlns="http://www.w3.org/2000/svg">
<path d="M21.5 78.3C20.4369 78.3 19.3977 78.6167 18.5138 79.2101C17.6299 79.8034 16.941 80.6468 16.5341 81.6335C16.1273 82.6202 16.0209 83.706 16.2283 84.7535C16.4357 85.801 16.9476 86.7632 17.6993 87.5184C18.451 88.2736 19.4087 88.7879 20.4514 88.9962C21.494 89.2046 22.5748 89.0977 23.5569 88.6889C24.5391 88.2802 25.3785 87.5881 25.9691 86.7001C26.5598 85.8121 26.875 84.768 26.875 83.7C26.875 82.2678 26.3087 80.8943 25.3007 79.8816C24.2927 78.8689 22.9255 78.3 21.5 78.3ZM43 0C21.5 0 0 7.398 0 21.6V86.4C0 100.602 21.5 108 43 108C64.5 108 86 100.602 86 86.4V21.6C86 7.398 64.5 0 43 0ZM75.25 86.4C75.25 90.234 62.995 97.2 43 97.2C23.005 97.2 10.75 90.234 10.75 86.4V68.742C20.8124 73.5478 31.8624 75.8976 43 75.6C54.1376 75.8976 65.1876 73.5478 75.25 68.742V86.4ZM75.25 54C75.25 57.834 62.995 64.8 43 64.8C23.005 64.8 10.75 57.834 10.75 54V36.342C20.8124 41.1478 31.8624 43.4976 43 43.2C54.1376 43.4976 65.1876 41.1478 75.25 36.342V54ZM43 32.4C23.005 32.4 10.75 25.434 10.75 21.6C10.75 17.766 23.005 10.8 43 10.8C62.995 10.8 75.25 17.766 75.25 21.6C75.25 25.434 62.995 32.4 43 32.4ZM21.5 45.9C20.4369 45.9 19.3977 46.2167 18.5138 46.8101C17.6299 47.4034 16.941 48.2468 16.5341 49.2335C16.1273 50.2202 16.0209 51.306 16.2283 52.3535C16.4357 53.401 16.9476 54.3632 17.6993 55.1184C18.451 55.8736 19.4087 56.3879 20.4514 56.5962C21.494 56.8046 22.5748 56.6977 23.5569 56.289C24.5391 55.8802 25.3785 55.1881 25.9691 54.3001C26.5598 53.4121 26.875 52.368 26.875 51.3C26.875 49.8678 26.3087 48.4943 25.3007 47.4816C24.2927 46.4689 22.9255 45.9 21.5 45.9Z" fill="#FE621D"/>
</svg>
