<svg width="21" height="135" viewBox="0 0 21 135" fill="none" xmlns="http://www.w3.org/2000/svg">
<path d="M5 1.07546C5 0.75346 5.161 0.59246 5.483 0.59246L19.076 0.592461C19.398 0.592461 19.559 0.753461 19.559 1.07546L19.559 9.81546C19.559 10.1375 19.398 10.2985 19.076 10.2985C18.754 10.2985 18.593 10.1375 18.593 9.81546L18.593 1.55846L12.866 1.55846L12.866 7.10146C12.866 7.42346 12.705 7.58446 12.383 7.58446C12.061 7.58446 11.9 7.42346 11.9 7.10146L11.9 1.55846L5.966 1.55846L5.966 9.81546C5.966 10.1375 5.805 10.2985 5.483 10.2985C5.161 10.2985 5 10.1375 5 9.81546L5 1.07546ZM5.138 12.3426C5.345 12.0896 5.575 12.0666 5.828 12.2736L10.336 15.9651L14.798 12.4806C15.0357 12.2813 15.2657 12.3043 15.488 12.5496C15.672 12.8103 15.6413 13.0403 15.396 13.2396L11.026 16.6551L15.396 20.2546C15.6643 20.4693 15.6873 20.6993 15.465 20.9446C15.258 21.2053 15.0357 21.2283 14.798 21.0136L10.2555 17.2531L5.805 20.7376C5.54433 20.9523 5.322 20.9293 5.138 20.6686C4.931 20.4156 4.954 20.1856 5.207 19.9786L9.554 16.5746L5.207 13.0096C4.94633 12.8026 4.92333 12.5803 5.138 12.3426ZM0.399998 24.7493C0.399998 24.4273 0.560998 24.2663 0.882998 24.2663L15.12 24.2663C15.442 24.2663 15.603 24.4273 15.603 24.7493C15.603 25.0713 15.442 25.2323 15.12 25.2323L13.855 25.2323C14.43 25.5543 14.8632 26.0411 15.1545 26.6928C15.4535 27.3521 15.603 28.2223 15.603 29.3033L15.603 30.1773C15.603 31.5803 15.281 32.6 14.637 33.2363C14.0007 33.8803 12.981 34.2023 11.578 34.2023L9.025 34.2023C7.622 34.2023 6.5985 33.8803 5.9545 33.2363C5.31816 32.6 5 31.5803 5 30.1773L5 25.2323L0.882998 25.2323C0.560998 25.2323 0.399998 25.0713 0.399998 24.7493ZM5.966 25.2323L5.966 30.1773C5.966 31.3043 6.19216 32.094 6.6445 32.5463C7.1045 33.0063 7.898 33.2363 9.025 33.2363L11.578 33.2363C12.705 33.2363 13.4947 33.0063 13.947 32.5463C14.407 32.094 14.637 31.3043 14.637 30.1773L14.637 29.3033C14.637 27.9923 14.4185 27.0148 13.9815 26.3708C13.5522 25.7268 12.889 25.3473 11.992 25.2323L5.966 25.2323ZM5 41.1612C5 40.1032 5.2415 39.3289 5.7245 38.8382C6.2075 38.3476 6.97033 38.1022 8.013 38.1022L20.387 38.1022C20.709 38.1022 20.87 38.2632 20.87 38.5852C20.87 38.9072 20.709 39.0682 20.387 39.0682L8.013 39.0682C7.231 39.0682 6.69433 39.2177 6.403 39.5167C6.11166 39.8157 5.966 40.3562 5.966 41.1382C5.966 41.4756 5.805 41.6442 5.483 41.6442C5.161 41.6442 5 41.4832 5 41.1612ZM5 47.7595C5 46.3565 5.31816 45.333 5.9545 44.689C6.5985 44.0527 7.61433 43.7345 9.002 43.7345L11.578 43.7345C12.9963 43.7345 14.0237 44.0527 14.66 44.689C15.304 45.333 15.6183 46.3565 15.603 47.7595L15.603 49.6455C15.603 51.0485 15.281 52.0682 14.637 52.7045C14.0007 53.3485 12.981 53.6705 11.578 53.6705L9.025 53.6705C7.622 53.6705 6.5985 53.3485 5.9545 52.7045C5.31816 52.0682 5 51.0485 5 49.6455L5 47.7595ZM9.002 44.7005C7.89033 44.7005 7.1045 44.9267 6.6445 45.379C6.19216 45.839 5.966 46.6325 5.966 47.7595L5.966 49.6455C5.966 50.7725 6.19216 51.5622 6.6445 52.0145C7.1045 52.4745 7.898 52.7045 9.025 52.7045L11.578 52.7045C12.705 52.7045 13.4947 52.4745 13.947 52.0145C14.407 51.5622 14.637 50.7725 14.637 49.6455L14.637 47.7595C14.6447 47.0082 14.5488 46.4064 14.3495 45.954C14.1578 45.5094 13.8358 45.1874 13.3835 44.988C12.9388 44.7964 12.337 44.7005 11.578 44.7005L9.002 44.7005ZM5 58.0589C5 57.7369 5.161 57.5759 5.483 57.5759L15.12 57.5759C15.442 57.5759 15.603 57.7369 15.603 58.0589C15.603 58.3809 15.442 58.5419 15.12 58.5419L13.0615 58.5419C13.8818 58.9252 14.5105 59.5002 14.9475 60.2669C15.3845 61.0412 15.603 61.9689 15.603 63.0499C15.603 63.3719 15.442 63.5329 15.12 63.5329C14.798 63.5329 14.637 63.3719 14.637 63.0499C14.637 61.6699 14.3073 60.5965 13.648 59.8299C12.9887 59.0632 12.0303 58.6339 10.773 58.5419L5.483 58.5419C5.161 58.5419 5 58.3809 5 58.0589ZM9.945 66.1507L9.002 66.1507C7.89033 66.1507 7.1045 66.3769 6.6445 66.8292C6.19216 67.2892 5.966 68.0827 5.966 69.2097L5.966 71.0957C5.966 72.1307 6.10783 72.8782 6.3915 73.3382C6.67516 73.7982 7.162 74.0627 7.852 74.1317C8.013 74.1471 8.13183 74.1931 8.2085 74.2697C8.29283 74.3541 8.335 74.4767 8.335 74.6377C8.335 74.7911 8.289 74.9099 8.197 74.9942C8.11266 75.0786 7.99 75.1131 7.829 75.0977C6.85533 75.0211 6.1385 74.6569 5.6785 74.0052C5.22616 73.3536 5 72.3837 5 71.0957L5 69.2097C5 67.8067 5.31816 66.7832 5.9545 66.1392C6.5985 65.5029 7.61433 65.1847 9.002 65.1847L11.578 65.1847C12.9963 65.1847 14.0237 65.5029 14.66 66.1392C15.304 66.7832 15.6183 67.8067 15.603 69.2097L15.603 71.0957C15.603 72.4987 15.281 73.5184 14.637 74.1547C14.0007 74.7987 12.981 75.1207 11.578 75.1207L10.428 75.1207C10.106 75.1207 9.945 74.9597 9.945 74.6377L9.945 66.1507ZM14.637 69.2097C14.6523 68.0827 14.43 67.2892 13.97 66.8292C13.5177 66.3769 12.7203 66.1507 11.578 66.1507L10.911 66.1507L10.911 74.1547L11.578 74.1547C12.705 74.1547 13.4947 73.9247 13.947 73.4647C14.407 73.0124 14.637 72.2227 14.637 71.0957L14.637 69.2097ZM15.626 96.3098C15.626 97.4752 15.3193 98.307 14.706 98.8053C14.1003 99.3037 13.096 99.5528 11.693 99.5528L5.45999 99.5528C5.13799 99.5528 4.97699 99.3918 4.97699 99.0698C4.97699 98.7478 5.13799 98.5868 5.45999 98.5868L11.693 98.5868C12.751 98.5868 13.51 98.4105 13.97 98.0578C14.43 97.7128 14.66 97.1302 14.66 96.3098L14.66 95.3438C14.66 94.3012 14.43 93.5537 13.97 93.1013C13.51 92.649 12.751 92.4228 11.693 92.4228L5.46 92.4228C5.138 92.4228 4.977 92.2618 4.977 91.9398C4.977 91.6178 5.138 91.4568 5.46 91.4568L11.693 91.4568C12.751 91.4568 13.51 91.2805 13.97 90.9278C14.43 90.5828 14.66 90.0002 14.66 89.1798L14.66 88.2138C14.66 87.1712 14.43 86.4237 13.97 85.9713C13.51 85.519 12.751 85.2928 11.693 85.2928L5.46 85.2928C5.138 85.2928 4.977 85.1318 4.977 84.8098C4.977 84.4878 5.138 84.3268 5.46 84.3268L15.12 84.3268C15.442 84.3268 15.603 84.4878 15.603 84.8098C15.603 85.1318 15.442 85.2928 15.12 85.2928L14.108 85.2928C14.6523 85.6072 15.0395 85.9905 15.2695 86.4428C15.5072 86.9028 15.626 87.4932 15.626 88.2138L15.626 89.1798C15.626 89.9312 15.4842 90.5407 15.2005 91.0083C14.9168 91.4837 14.4492 91.8632 13.7975 92.1468C14.4492 92.4535 14.9168 92.8598 15.2005 93.3658C15.4842 93.8718 15.626 94.5312 15.626 95.3438L15.626 96.3098ZM4.99999 107.281C4.99999 105.878 5.31816 104.855 5.95449 104.211C6.59849 103.574 7.61433 103.256 9.00199 103.256L11.578 103.256C12.9963 103.256 14.0237 103.574 14.66 104.211C15.304 104.855 15.6183 105.878 15.603 107.281L15.603 109.167C15.603 110.57 15.281 111.59 14.637 112.226C14.0007 112.87 12.981 113.192 11.578 113.192L9.02499 113.192C7.62199 113.192 6.59849 112.87 5.95449 112.226C5.31816 111.59 4.99999 110.57 4.99999 109.167L4.99999 107.281ZM9.00199 104.222C7.89033 104.222 7.10449 104.448 6.64449 104.901C6.19216 105.361 5.96599 106.154 5.96599 107.281L5.96599 109.167C5.96599 110.294 6.19216 111.084 6.64449 111.536C7.10449 111.996 7.89799 112.226 9.02499 112.226L11.578 112.226C12.705 112.226 13.4947 111.996 13.947 111.536C14.407 111.084 14.637 110.294 14.637 109.167L14.637 107.281C14.6447 106.53 14.5488 105.928 14.3495 105.476C14.1578 105.031 13.8358 104.709 13.3835 104.51C12.9388 104.318 12.337 104.222 11.578 104.222L9.00199 104.222ZM4.99999 117.58C4.99999 117.258 5.16099 117.097 5.48299 117.097L15.12 117.097C15.442 117.097 15.603 117.258 15.603 117.58C15.603 117.902 15.442 118.063 15.12 118.063L13.0615 118.063C13.8818 118.447 14.5105 119.022 14.9475 119.788C15.3845 120.563 15.603 121.49 15.603 122.571C15.603 122.893 15.442 123.054 15.12 123.054C14.798 123.054 14.637 122.893 14.637 122.571C14.637 121.191 14.3073 120.118 13.648 119.351C12.9887 118.585 12.0303 118.155 10.773 118.063L5.48299 118.063C5.16099 118.063 4.99999 117.902 4.99999 117.58ZM9.94499 125.672L9.00199 125.672C7.89033 125.672 7.10449 125.898 6.64449 126.351C6.19216 126.811 5.96599 127.604 5.96599 128.731L5.96599 130.617C5.96599 131.652 6.10783 132.4 6.39149 132.86C6.67516 133.32 7.16199 133.584 7.85199 133.653C8.01299 133.669 8.13183 133.715 8.20849 133.791C8.29283 133.876 8.33499 133.998 8.33499 134.159C8.33499 134.313 8.28899 134.431 8.19699 134.516C8.11266 134.6 7.98999 134.635 7.82899 134.619C6.85533 134.543 6.13849 134.178 5.67849 133.527C5.22616 132.875 4.99999 131.905 4.99999 130.617L4.99999 128.731C4.99999 127.328 5.31816 126.305 5.95449 125.661C6.59849 125.024 7.61433 124.706 9.00199 124.706L11.578 124.706C12.9963 124.706 14.0237 125.024 14.66 125.661C15.304 126.305 15.6183 127.328 15.603 128.731L15.603 130.617C15.603 132.02 15.281 133.04 14.637 133.676C14.0007 134.32 12.981 134.642 11.578 134.642L10.428 134.642C10.106 134.642 9.94499 134.481 9.94499 134.159L9.94499 125.672ZM14.637 128.731C14.6523 127.604 14.43 126.811 13.97 126.351C13.5177 125.898 12.7203 125.672 11.578 125.672L10.911 125.672L10.911 133.676L11.578 133.676C12.705 133.676 13.4947 133.446 13.947 132.986C14.407 132.534 14.637 131.744 14.637 130.617L14.637 128.731Z" fill="black"/>
</svg>
