<svg width="182" height="21" viewBox="0 0 182 21" fill="none" xmlns="http://www.w3.org/2000/svg">
<path d="M5.455 0.259998C4.225 0.259998 2.905 0.59 1.825 1.52C0.775 2.42 0.085 3.89 0.085 5.6V6.35C0.115 8 0.805 9.41 1.825 10.28C2.905 11.18 4.225 11.54 5.455 11.54H20.395C20.965 11.54 21.475 11.72 21.805 11.99C22.075 12.23 22.285 12.5 22.345 13.13C22.345 13.73 22.345 14.87 22.345 14.87C22.345 15.74 22.105 16.1 21.775 16.37C21.475 16.64 20.935 16.79 20.365 16.79H5.935C5.365 16.79 4.825 16.64 4.525 16.37C4.195 16.1 3.955 15.74 3.955 14.87C3.955 14.87 3.955 14.48 3.955 14.09H0.085V14.69C0.085 16.37 0.775 17.84 1.825 18.77C2.905 19.67 4.195 20.03 5.455 20.03H20.845C22.105 20.03 23.395 19.67 24.475 18.77C25.555 17.84 26.215 16.37 26.245 14.69V13.67C26.245 11.96 25.555 10.49 24.505 9.59C23.425 8.69 22.105 8.33 20.875 8.33H5.935C5.365 8.33 4.825 8.15 4.525 7.88C4.195 7.61 3.955 7.28 3.955 6.41V5.39C3.955 4.52 4.195 4.19 4.525 3.92C4.825 3.65 5.365 3.47 5.935 3.47H19.795C20.365 3.47 20.875 3.65 21.205 3.92C21.505 4.16 21.715 4.46 21.745 5.21H25.645C25.555 3.68 24.895 2.33 23.905 1.52C22.825 0.59 21.505 0.259998 20.275 0.259998H5.455ZM64.3846 0.259998L56.2546 15.62L49.0846 0.259998H45.7246L38.5546 15.62L30.4546 0.259998H26.0746L36.4846 19.97V20H40.7746L47.4046 5.72L54.0646 20H58.3546L58.3246 19.97L68.7646 0.259998H64.3846ZM68.3165 0.259998L73.7165 5.3L78.8765 10.1L79.5065 10.67L80.2565 11.39V20H84.1565V11.39L84.9365 10.67L85.5665 10.1L90.6965 5.3L96.1265 0.259998H90.6965L85.2965 5.3L82.8365 7.55L82.2065 8.15L81.5765 7.55L79.1465 5.3L73.7165 0.259998H68.3165ZM95.8933 0.259998V3.47H107.173V20H111.043V3.47H122.353V0.259998H95.8933ZM128.947 0.259998C127.717 0.259998 126.397 0.59 125.317 1.52C124.267 2.42 123.577 3.89 123.577 5.6V14.69C123.577 16.37 124.267 17.84 125.317 18.77C126.397 19.67 127.717 20 128.947 20H145.897C147.157 20 148.447 19.67 149.527 18.77C150.607 17.84 151.297 16.37 151.297 14.69L151.237 13.31H147.397V14.87C147.397 15.74 147.157 16.1 146.827 16.37C146.527 16.64 145.987 16.79 145.417 16.79H129.427C128.857 16.79 128.317 16.64 128.017 16.37C127.687 16.1 127.447 15.74 127.447 14.87V5.39C127.447 4.52 127.687 4.19 128.017 3.92C128.317 3.65 128.857 3.47 129.427 3.47H145.417C145.987 3.47 146.527 3.65 146.827 3.92C147.157 4.19 147.397 4.52 147.397 5.39V6.95H151.237L151.297 5.6C151.297 3.89 150.607 2.42 149.527 1.49C148.447 0.59 147.157 0.259998 145.897 0.259998H128.947ZM153.701 0.259998V20H157.571V11.72H177.461V20.03H181.331V0.259998H177.461V8.48H157.571V0.259998H153.701Z" fill="#FE621D"/>
</svg>
