<svg width="84" height="111" viewBox="0 0 84 111" fill="none" xmlns="http://www.w3.org/2000/svg">
<path d="M68.0848 20.0513H83.8359V35.8024H68.0848V20.0513ZM68.0848 43.678H83.8359V59.4292H68.0848V43.678ZM44.458 20.0513H60.2092V35.8024H44.458V20.0513ZM44.458 43.678H60.2092V59.4292H44.458V43.678Z" fill="#FE621D"/>
<path d="M34.0664 95.5258C37.389 95.5258 40.0824 92.8323 40.0824 89.5097C40.0824 86.1871 37.389 83.4937 34.0664 83.4937C30.7438 83.4937 28.0503 86.1871 28.0503 89.5097C28.0503 92.8323 30.7438 95.5258 34.0664 95.5258Z" fill="#FE621D"/>
<path d="M60.5436 110.839H8.68313C6.56774 110.837 4.53959 110.005 3.04378 108.526C1.54797 107.046 0.706702 105.04 0.70459 102.948V8.25352C0.706702 6.16128 1.54797 4.15533 3.04378 2.6759C4.53959 1.19646 6.56774 0.364394 8.68313 0.362305H60.5436V8.25352H8.68313V102.948H60.5436V71.3832H68.5222V102.948C68.5201 105.04 67.6788 107.046 66.183 108.526C64.6872 110.005 62.659 110.837 60.5436 110.839Z" fill="#FE621D"/>
</svg>
