<svg width="120" height="111" viewBox="0 0 120 111" fill="none" xmlns="http://www.w3.org/2000/svg">
<path d="M61.5758 1.02271C61.0779 0.797034 60.5418 0.680664 60 0.680664C59.4583 0.680664 58.9221 0.797034 58.4242 1.02271L2.43199 26.3943C1.71053 26.7192 1.09534 27.2613 0.662941 27.9529C0.230538 28.6446 0 29.4555 0 30.2846C0 31.1137 0.230538 31.9245 0.662941 32.6162C1.09534 33.3079 1.71053 33.8499 2.43199 34.1749L58.4242 59.5465C58.9221 59.7721 59.4583 59.8885 60 59.8885C60.5418 59.8885 61.0779 59.7721 61.5758 59.5465L117.568 34.1749C118.289 33.8499 118.905 33.3079 119.337 32.6162C119.769 31.9245 120 31.1137 120 30.2846C120 29.4555 119.769 28.6446 119.337 27.9529C118.905 27.2613 118.289 26.7192 117.568 26.3943L61.5758 1.02271Z" fill="#FE621D"/>
<path d="M60.0001 76.4273L5.58363 51.7661L2.43207 59.5467L60.0001 85.6287L117.568 59.5467L114.417 51.7661L60.0001 76.4273Z" fill="#FE621D"/>
<path d="M5.58363 77.1372L2.43207 84.9178L60.0001 111L117.568 84.9178L114.417 77.1372L60.0001 101.798L5.58363 77.1372Z" fill="#FE621D"/>
</svg>
