<svg width="37" height="28" viewBox="0 0 37 28" fill="none" xmlns="http://www.w3.org/2000/svg">
<path fill-rule="evenodd" clip-rule="evenodd" d="M0 14C0 13.5875 0.162077 13.1919 0.450576 12.9002C0.739076 12.6085 1.13036 12.4447 1.53836 12.4447H31.7453L22.0629 2.65848C21.774 2.36643 21.6117 1.97032 21.6117 1.5573C21.6117 1.14428 21.774 0.748174 22.0629 0.456123C22.3517 0.164072 22.7435 9.73114e-09 23.152 0C23.5606 -9.73114e-09 23.9523 0.164072 24.2412 0.456123L36.5481 12.8988C36.6914 13.0433 36.805 13.2149 36.8826 13.4039C36.9602 13.5929 37.0001 13.7954 37.0001 14C37.0001 14.2046 36.9602 14.4072 36.8826 14.5961C36.805 14.7851 36.6914 14.9567 36.5481 15.1012L24.2412 27.5439C23.9523 27.8359 23.5606 28 23.152 28C22.7435 28 22.3517 27.8359 22.0629 27.5439C21.774 27.2518 21.6117 26.8557 21.6117 26.4427C21.6117 26.0297 21.774 25.6336 22.0629 25.3415L31.7453 15.5553H1.53836C1.13036 15.5553 0.739076 15.3915 0.450576 15.0998C0.162077 14.8081 0 14.4125 0 14Z" fill="#FE621D"/>
</svg>
