<svg width="120" height="108" viewBox="0 0 120 108" fill="none" xmlns="http://www.w3.org/2000/svg">
<path d="M108 108H12C8.8174 108 5.76515 106.736 3.51472 104.485C1.26428 102.235 0 99.1826 0 96V12C0 8.8174 1.26428 5.76515 3.51472 3.51472C5.76515 1.26428 8.8174 0 12 0H108C111.183 0 114.235 1.26428 116.485 3.51472C118.736 5.76515 120 8.8174 120 12V96C120 99.1826 118.736 102.235 116.485 104.485C114.235 106.736 111.183 108 108 108ZM12 24V96H108V24H12ZM76.242 82.242L67.764 73.764L81.516 60L67.758 46.242L76.242 37.758L98.484 60L76.248 82.236L76.242 82.242ZM43.758 82.242L21.516 60L43.758 37.758L52.242 46.242L38.484 60L52.236 73.758L43.758 82.236V82.242Z" fill="#FE621D"/>
</svg>
