<svg width="758" height="227" viewBox="0 0 758 227" fill="none" xmlns="http://www.w3.org/2000/svg">
<path d="M-35.1 8.19599V99H-17.298V38.97L25.758 99H40.662L83.718 38.97V99H101.52V8.19599H84.96L33.21 80.094L-18.678 8.19599H-35.1ZM138.479 22.824C127.439 22.824 113.639 30.276 113.639 45.594V76.368C113.639 91.686 127.439 99.138 138.479 99.138H189.677C200.717 99.138 214.379 91.686 214.379 76.368H196.439C196.439 79.68 194.921 84.372 187.469 84.372H140.687C133.235 84.372 131.441 79.68 131.441 76.368V67.95H214.379V45.594C214.379 30.276 200.717 22.824 189.677 22.824H138.479ZM187.469 37.59C194.921 37.59 196.439 42.282 196.439 45.594V53.322H131.441V45.594C131.441 42.282 133.235 37.59 140.687 37.59H187.469ZM249.391 22.824C238.351 22.824 224.551 30.276 224.551 45.594V76.368C224.551 91.686 238.351 99.138 249.391 99.138H300.589C311.629 99.138 325.291 91.686 325.291 76.368H307.351C307.351 79.68 305.833 84.372 298.381 84.372H251.599C244.147 84.372 242.353 79.68 242.353 76.368V67.95H325.291V45.594C325.291 30.276 311.629 22.824 300.589 22.824H249.391ZM298.381 37.59C305.833 37.59 307.351 42.282 307.351 45.594V53.322H242.353V45.594C242.353 42.282 244.147 37.59 251.599 37.59H298.381ZM343.191 4.19399V22.962H331.737V37.728H343.191V74.436C343.191 74.436 343.329 78.714 343.881 80.784C344.985 85.89 347.607 90.306 351.195 93.342C356.163 97.482 362.235 99.138 367.893 99.138H382.107C387.765 99.138 393.837 97.482 398.667 93.342C402.255 90.306 404.877 85.89 406.119 80.784C406.395 79.542 406.533 77.61 406.671 76.23H388.869C388.593 80.232 387.627 81.198 386.385 82.302C384.867 83.544 382.521 84.234 379.899 84.234H370.101C367.479 84.234 364.995 83.544 363.615 82.302C362.097 81.06 361.131 79.956 360.993 74.574V37.728H406.947V22.962H360.993V4.19399H343.191ZM478.496 4.19399V22.962H467.042V37.728H478.496V74.436C478.496 74.436 478.634 78.714 479.186 80.784C480.29 85.89 482.912 90.306 486.5 93.342C491.468 97.482 497.54 99.138 503.198 99.138H517.412C523.07 99.138 529.142 97.482 533.972 93.342C537.56 90.306 540.182 85.89 541.424 80.784C541.7 79.542 541.838 77.61 541.976 76.23H524.174C523.898 80.232 522.932 81.198 521.69 82.302C520.172 83.544 517.826 84.234 515.204 84.234H505.406C502.784 84.234 500.3 83.544 498.92 82.302C497.402 81.06 496.436 79.956 496.298 74.574V37.728H542.252V22.962H496.298V4.19399H478.496ZM552.067 0.191997V99H569.869C569.869 99 570.145 48.216 570.145 47.388C570.145 42.006 571.249 40.902 572.629 39.66C574.147 38.418 576.493 37.59 579.253 37.59H618.169C620.791 37.59 623.137 38.418 624.655 39.66C626.173 40.902 627.139 42.006 627.139 47.388C627.139 49.734 627.139 90.168 627.139 99H645.217C645.355 93.066 645.493 53.598 645.079 47.526C644.941 45.318 644.803 43.248 644.389 41.178C643.147 36.072 640.525 31.656 637.075 28.62C632.107 24.48 626.035 22.824 620.377 22.824H585.877C580.495 22.824 574.699 24.342 569.869 28.206V0.191997H552.067ZM681.18 22.824C670.14 22.824 656.34 30.276 656.34 45.594V76.368C656.34 91.686 670.14 99.138 681.18 99.138H732.378C743.418 99.138 757.08 91.686 757.08 76.368H739.14C739.14 79.68 737.622 84.372 730.17 84.372H683.388C675.936 84.372 674.142 79.68 674.142 76.368V67.95H757.08V45.594C757.08 30.276 743.418 22.824 732.378 22.824H681.18ZM730.17 37.59C737.622 37.59 739.14 42.282 739.14 45.594V53.322H674.142V45.594C674.142 42.282 675.936 37.59 683.388 37.59H730.17ZM-29.166 131.194V149.962H-40.62V164.728H-29.166V201.436C-29.166 201.436 -29.028 205.714 -28.476 207.784C-27.372 212.89 -24.75 217.306 -21.162 220.342C-16.194 224.482 -10.122 226.138 -4.464 226.138H9.75C15.408 226.138 21.48 224.482 26.31 220.342C29.898 217.306 32.52 212.89 33.762 207.784C34.038 206.542 34.176 204.61 34.314 203.23H16.512C16.236 207.232 15.27 208.198 14.028 209.302C12.51 210.544 10.164 211.234 7.542 211.234H-2.256C-4.878 211.234 -7.362 210.544 -8.742 209.302C-10.26 208.06 -11.226 206.956 -11.364 201.574V164.728H34.59V149.962H-11.364V131.194H-29.166ZM67.7273 149.824C56.6873 149.824 42.8873 157.276 42.8873 172.594V203.368C42.8873 218.686 56.6873 226.138 67.7273 226.138H118.925C129.965 226.138 143.627 218.686 143.627 203.368H125.687C125.687 206.68 124.169 211.372 116.717 211.372H69.9353C62.4833 211.372 60.6893 206.68 60.6893 203.368V194.95H143.627V172.594C143.627 157.276 129.965 149.824 118.925 149.824H67.7273ZM116.717 164.59C124.169 164.59 125.687 169.282 125.687 172.594V180.322H60.6893V172.594C60.6893 169.282 62.4833 164.59 69.9353 164.59H116.717ZM180.571 149.272C169.531 149.272 155.869 156.724 155.869 172.042H173.809C173.809 168.73 175.327 164.038 182.779 164.038H225.973C233.425 164.038 234.943 168.73 234.943 172.042V184.462C230.251 180.874 224.317 179.218 219.073 179.218H176.707C165.667 179.218 152.143 186.532 152.143 203.092C152.143 219.652 165.667 226.138 176.707 226.138H219.073C224.317 226.138 230.251 224.62 234.943 221.17V226H252.883V172.18C252.883 156.724 239.221 149.272 228.181 149.272H180.571ZM180.295 193.984H225.697C233.287 193.984 234.805 198.538 234.805 203.092C234.805 207.646 233.287 211.372 225.697 211.372H180.295C172.843 211.372 171.325 207.646 171.325 203.092C171.325 198.538 172.843 193.984 180.295 193.984ZM299.366 149.824C293.984 149.824 288.188 151.342 283.358 155.206V149.962H265.556V226H283.358C283.358 226 283.634 175.216 283.634 174.388C283.634 169.006 284.738 167.902 286.118 166.66C287.636 165.418 289.982 164.59 292.742 164.59H313.58C316.34 164.59 318.686 165.418 320.204 166.66C321.584 167.902 322.688 169.006 322.688 174.388C322.688 176.734 322.688 217.168 322.688 226H340.766C340.766 225.724 340.766 174.664 340.766 174.388C340.766 169.006 341.87 167.902 343.25 166.66C344.768 165.418 347.114 164.59 349.874 164.59H370.85C373.472 164.59 375.956 165.418 377.336 166.66C378.854 167.902 379.82 169.006 379.958 174.388C379.958 176.872 379.958 216.892 379.958 226H397.898C398.036 220.618 398.174 181.288 397.898 174.526C397.76 172.318 397.622 170.248 397.07 168.178C395.966 163.072 393.344 158.656 389.756 155.62C384.788 151.48 378.854 149.824 373.058 149.824H356.498C350.84 149.824 344.768 151.48 339.938 155.62C338.558 156.862 337.316 158.242 336.212 159.76C335.108 158.242 333.866 156.862 332.486 155.62C327.656 151.48 321.584 149.824 315.926 149.824H299.366Z" fill="black" fill-opacity="0.02"/>
</svg>
