<svg width="284" height="95" viewBox="0 0 284 95" fill="none" xmlns="http://www.w3.org/2000/svg">
<path opacity="0.03" d="M-12.55 3.758V36H-6.229V14.685L9.059 36H14.351L29.639 14.685V36H35.96V3.758H30.08L11.705 29.287L-6.719 3.758H-12.55ZM49.0832 8.952C45.1632 8.952 40.2632 11.598 40.2632 17.037V27.964C40.2632 33.403 45.1632 36.049 49.0832 36.049H67.2622C71.1822 36.049 76.0332 33.403 76.0332 27.964H69.6632C69.6632 29.14 69.1242 30.806 66.4782 30.806H49.8672C47.2212 30.806 46.5842 29.14 46.5842 27.964V24.975H76.0332V17.037C76.0332 11.598 71.1822 8.952 67.2622 8.952H49.0832ZM66.4782 14.195C69.1242 14.195 69.6632 15.861 69.6632 17.037V19.781H46.5842V17.037C46.5842 15.861 47.2212 14.195 49.8672 14.195H66.4782ZM88.465 8.952C84.545 8.952 79.645 11.598 79.645 17.037V27.964C79.645 33.403 84.545 36.049 88.465 36.049H106.644C110.564 36.049 115.415 33.403 115.415 27.964H109.045C109.045 29.14 108.506 30.806 105.86 30.806H89.249C86.603 30.806 85.966 29.14 85.966 27.964V24.975H115.415V17.037C115.415 11.598 110.564 8.952 106.644 8.952H88.465ZM105.86 14.195C108.506 14.195 109.045 15.861 109.045 17.037V19.781H85.966V17.037C85.966 15.861 86.603 14.195 89.249 14.195H105.86ZM121.771 2.337V9.001H117.704V14.244H121.771V27.278C121.771 27.278 121.82 28.797 122.016 29.532C122.408 31.345 123.339 32.913 124.613 33.991C126.377 35.461 128.533 36.049 130.542 36.049H135.589C137.598 36.049 139.754 35.461 141.469 33.991C142.743 32.913 143.674 31.345 144.115 29.532C144.213 29.091 144.262 28.405 144.311 27.915H137.99C137.892 29.336 137.549 29.679 137.108 30.071C136.569 30.512 135.736 30.757 134.805 30.757H131.326C130.395 30.757 129.513 30.512 129.023 30.071C128.484 29.63 128.141 29.238 128.092 27.327V14.244H144.409V9.001H128.092V2.337H121.771ZM165.306 3.758V9.001H183.73V36H190.051V9.001H208.524V3.758H165.306ZM210.915 0.915999V36H217.236C217.236 36 217.334 17.968 217.334 17.674C217.334 15.763 217.726 15.371 218.216 14.93C218.755 14.489 219.588 14.195 220.568 14.195H234.386C235.317 14.195 236.15 14.489 236.689 14.93C237.228 15.371 237.571 15.763 237.571 17.674C237.571 18.507 237.571 32.864 237.571 36H243.99C244.039 33.893 244.088 19.879 243.941 17.723C243.892 16.939 243.843 16.204 243.696 15.469C243.255 13.656 242.324 12.088 241.099 11.01C239.335 9.54 237.179 8.952 235.17 8.952H222.92C221.009 8.952 218.951 9.491 217.236 10.863V0.915999H210.915ZM256.759 8.952C252.839 8.952 247.939 11.598 247.939 17.037V27.964C247.939 33.403 252.839 36.049 256.759 36.049H274.938C278.858 36.049 283.709 33.403 283.709 27.964H277.339C277.339 29.14 276.8 30.806 274.154 30.806H257.543C254.897 30.806 254.26 29.14 254.26 27.964V24.975H283.709V17.037C283.709 11.598 278.858 8.952 274.938 8.952H256.759ZM274.154 14.195C276.8 14.195 277.339 15.861 277.339 17.037V19.781H254.26V17.037C254.26 15.861 254.897 14.195 257.543 14.195H274.154ZM-14.951 61.758V67.001H3.473V94H9.794V67.001H28.267V61.758H-14.951ZM36.7853 66.952C32.8653 66.952 27.9653 69.598 27.9653 75.037V85.964C27.9653 91.403 32.8653 94.049 36.7853 94.049H54.9643C58.8843 94.049 63.7353 91.403 63.7353 85.964H57.3653C57.3653 87.14 56.8263 88.806 54.1803 88.806H37.5693C34.9233 88.806 34.2863 87.14 34.2863 85.964V82.975H63.7353V75.037C63.7353 69.598 58.8843 66.952 54.9643 66.952H36.7853ZM54.1803 72.195C56.8263 72.195 57.3653 73.861 57.3653 75.037V77.781H34.2863V75.037C34.2863 73.861 34.9233 72.195 37.5693 72.195H54.1803ZM76.8532 66.756C72.9332 66.756 68.0822 69.402 68.0822 74.841H74.4522C74.4522 73.665 74.9912 71.999 77.6372 71.999H92.9742C95.6202 71.999 96.1592 73.665 96.1592 74.841V79.251C94.4932 77.977 92.3862 77.389 90.5242 77.389H75.4812C71.5612 77.389 66.7592 79.986 66.7592 85.866C66.7592 91.746 71.5612 94.049 75.4812 94.049H90.5242C92.3862 94.049 94.4932 93.51 96.1592 92.285V94H102.529V74.89C102.529 69.402 97.6782 66.756 93.7582 66.756H76.8532ZM76.7552 82.632H92.8762C95.5712 82.632 96.1102 84.249 96.1102 85.866C96.1102 87.483 95.5712 88.806 92.8762 88.806H76.7552C74.1092 88.806 73.5702 87.483 73.5702 85.866C73.5702 84.249 74.1092 82.632 76.7552 82.632ZM119.034 66.952C117.123 66.952 115.065 67.491 113.35 68.863V67.001H107.029V94H113.35C113.35 94 113.448 75.968 113.448 75.674C113.448 73.763 113.84 73.371 114.33 72.93C114.869 72.489 115.702 72.195 116.682 72.195H124.081C125.061 72.195 125.894 72.489 126.433 72.93C126.923 73.371 127.315 73.763 127.315 75.674C127.315 76.507 127.315 90.864 127.315 94H133.734C133.734 93.902 133.734 75.772 133.734 75.674C133.734 73.763 134.126 73.371 134.616 72.93C135.155 72.489 135.988 72.195 136.968 72.195H144.416C145.347 72.195 146.229 72.489 146.719 72.93C147.258 73.371 147.601 73.763 147.65 75.674C147.65 76.556 147.65 90.766 147.65 94H154.02C154.069 92.089 154.118 78.124 154.02 75.723C153.971 74.939 153.922 74.204 153.726 73.469C153.334 71.656 152.403 70.088 151.129 69.01C149.365 67.54 147.258 66.952 145.2 66.952H139.32C137.311 66.952 135.155 67.54 133.44 69.01C132.95 69.451 132.509 69.941 132.117 70.48C131.725 69.941 131.284 69.451 130.794 69.01C129.079 67.54 126.923 66.952 124.914 66.952H119.034Z" fill="#21232B"/>
</svg>
