<svg width="37" height="38" viewBox="0 0 37 38" fill="none" xmlns="http://www.w3.org/2000/svg">
<path d="M18.495 12.664C15.098 12.664 12.3258 15.5111 12.3258 19C12.3258 22.4889 15.098 25.336 18.495 25.336C21.892 25.336 24.6642 22.4889 24.6642 19C24.6642 15.5111 21.892 12.664 18.495 12.664ZM36.9979 19C36.9979 16.3762 37.0211 13.7762 36.8776 11.1572C36.7341 8.11515 36.0584 5.41532 33.8925 3.19082C31.722 0.961562 29.0979 0.272347 26.1359 0.124997C23.5812 -0.0223523 21.0497 0.00141381 18.4997 0.00141381C15.945 0.00141381 13.4134 -0.0223523 10.8634 0.124997C7.90144 0.272347 5.27272 0.966315 3.10679 3.19082C0.936241 5.42007 0.265175 8.11515 0.121706 11.1572C-0.0217637 13.781 0.00137658 16.381 0.00137658 19C0.00137658 21.619 -0.0217637 24.2238 0.121706 26.8428C0.265175 29.8849 0.940869 32.5847 3.10679 34.8092C5.27734 37.0384 7.90144 37.7277 10.8634 37.875C13.4181 38.0224 15.9496 37.9986 18.4997 37.9986C21.0543 37.9986 23.5859 38.0224 26.1359 37.875C29.0979 37.7277 31.7266 37.0337 33.8925 34.8092C36.0631 32.5799 36.7341 29.8849 36.8776 26.8428C37.0257 24.2238 36.9979 21.6238 36.9979 19ZM18.495 28.7488C13.2422 28.7488 9.00292 24.3949 9.00292 19C9.00292 13.6051 13.2422 9.25116 18.495 9.25116C23.7479 9.25116 27.9871 13.6051 27.9871 19C27.9871 24.3949 23.7479 28.7488 18.495 28.7488ZM28.3759 11.1287C27.1495 11.1287 26.1591 10.1115 26.1591 8.85189C26.1591 7.59229 27.1495 6.57511 28.3759 6.57511C29.6023 6.57511 30.5927 7.59229 30.5927 8.85189C30.5931 9.15099 30.536 9.44722 30.4247 9.72363C30.3134 10 30.1502 10.2512 29.9442 10.4627C29.7383 10.6742 29.4938 10.8419 29.2247 10.9561C28.9555 11.0704 28.6671 11.1291 28.3759 11.1287Z" fill="black"/>
</svg>
