<svg width="41" height="32" viewBox="0 0 41 32" fill="none" xmlns="http://www.w3.org/2000/svg">
<path d="M41 3.79578C39.4922 4.43722 37.8725 4.87063 36.1698 5.06653C37.9267 4.0572 39.2412 2.46864 39.8678 0.597263C38.2172 1.5386 36.4106 2.2012 34.5266 2.55625C33.2597 1.25754 31.5816 0.396729 29.7529 0.107471C27.9243 -0.181787 26.0473 0.11669 24.4134 0.95656C22.7795 1.79643 21.4801 3.1307 20.717 4.75223C19.9538 6.37375 19.7697 8.1918 20.193 9.92412C16.8483 9.76289 13.5763 8.92824 10.5893 7.47435C7.60235 6.02047 4.96717 3.97983 2.8548 1.48487C2.13252 2.68107 1.71721 4.06796 1.71721 5.545C1.71641 6.87468 2.05746 8.18399 2.71012 9.35676C3.36278 10.5295 4.30686 11.5295 5.4586 12.268C4.12289 12.2272 2.81665 11.8806 1.6486 11.2573V11.3613C1.64846 13.2262 2.32037 15.0337 3.55032 16.4772C4.78026 17.9206 6.49249 18.9111 8.39646 19.2804C7.15737 19.6024 5.85827 19.6498 4.59729 19.4191C5.13448 21.0238 6.18087 22.427 7.58998 23.4323C8.99909 24.4377 10.7004 24.9948 12.4557 25.0257C9.47596 27.2714 5.79606 28.4896 2.00793 28.4842C1.3369 28.4844 0.666437 28.4468 0 28.3715C3.84517 30.7452 8.32123 32.0049 12.8926 32C28.3674 32 36.8271 19.6948 36.8271 9.02264C36.8271 8.67591 36.818 8.32572 36.8018 7.979C38.4473 6.8365 39.8677 5.42174 40.9964 3.80099L41 3.79578Z" fill="black"/>
</svg>
