<svg width="14" height="14" viewBox="0 0 14 14" fill="none" xmlns="http://www.w3.org/2000/svg">
<path d="M1.5082 0.921212C1.43497 0.884582 1.35292 0.869242 1.27139 0.876936C1.18987 0.88463 1.11214 0.915049 1.04705 0.964734C0.981957 1.01442 0.932116 1.08137 0.903195 1.15798C0.874274 1.23459 0.867434 1.31778 0.883453 1.39809L2.11108 5.64184C2.13397 5.72092 2.17871 5.79194 2.24016 5.84674C2.30161 5.90153 2.37727 5.93787 2.45845 5.95159L7.4372 6.78546C7.6717 6.83184 7.6717 7.16784 7.4372 7.21421L2.45845 8.04809C2.37727 8.0618 2.30161 8.09814 2.24016 8.15294C2.17871 8.20773 2.13397 8.27875 2.11108 8.35784L0.883453 12.6016C0.867434 12.6819 0.874274 12.7651 0.903195 12.8417C0.932116 12.9183 0.981957 12.9853 1.04705 13.0349C1.11214 13.0846 1.18987 13.115 1.27139 13.1227C1.35292 13.1304 1.43497 13.1151 1.5082 13.0785L12.8832 7.39096C12.9558 7.35459 13.0168 7.29874 13.0594 7.22967C13.1021 7.16059 13.1247 7.08102 13.1247 6.99984C13.1247 6.91866 13.1021 6.83908 13.0594 6.77001C13.0168 6.70093 12.9558 6.64508 12.8832 6.60871L1.5082 0.921212Z" fill="#FE621D"/>
</svg>
