<svg width="731" height="92" viewBox="0 0 731 92" fill="none" xmlns="http://www.w3.org/2000/svg">
<path d="M24.8577 0.195993C19.1997 0.195993 13.1277 1.714 8.15974 5.99199C3.32974 10.132 0.155743 16.894 0.155743 24.76V66.574C0.155743 74.302 3.32974 81.064 8.15974 85.342C13.1277 89.482 19.1997 91 24.8577 91H102.828C108.624 91 114.558 89.482 119.526 85.342C124.494 81.064 127.668 74.302 127.668 66.574L127.392 60.226H109.728V67.402C109.728 71.404 108.624 73.06 107.106 74.302C105.726 75.544 103.242 76.234 100.62 76.234H27.0657C24.4437 76.234 21.9597 75.544 20.5797 74.302C19.0617 73.06 17.9577 71.404 17.9577 67.402V23.794C17.9577 19.792 19.0617 18.274 20.5797 17.032C21.9597 15.79 24.4437 14.962 27.0657 14.962H100.62C103.242 14.962 105.726 15.79 107.106 17.032C108.624 18.274 109.728 19.792 109.728 23.794V30.97H127.392L127.668 24.76C127.668 16.894 124.494 10.132 119.526 5.85399C114.558 1.714 108.624 0.195993 102.828 0.195993H24.8577ZM163.705 14.272C152.665 14.272 139.003 21.724 139.003 37.042H156.943C156.943 33.73 158.461 29.038 165.913 29.038H209.107C216.559 29.038 218.077 33.73 218.077 37.042V49.462C213.385 45.874 207.451 44.218 202.207 44.218H159.841C148.801 44.218 135.277 51.532 135.277 68.092C135.277 84.652 148.801 91.138 159.841 91.138H202.207C207.451 91.138 213.385 89.62 218.077 86.17V91H236.017V37.18C236.017 21.724 222.355 14.272 211.315 14.272H163.705ZM163.429 58.984H208.831C216.421 58.984 217.939 63.538 217.939 68.092C217.939 72.646 216.421 76.372 208.831 76.372H163.429C155.977 76.372 154.459 72.646 154.459 68.092C154.459 63.538 155.977 58.984 163.429 58.984ZM282.499 14.824C277.117 14.824 271.321 16.342 266.491 20.206V14.962H248.689V91H266.491C266.491 91 266.767 40.216 266.767 39.388C266.767 34.006 267.871 32.902 269.251 31.66C270.769 30.418 273.115 29.59 275.875 29.59H297.817C300.439 29.59 302.785 30.418 304.303 31.66C305.683 32.902 306.649 33.868 306.787 38.008H324.727C324.589 36.49 324.451 34.696 324.037 33.178C322.795 28.072 320.173 23.656 316.723 20.62C311.755 16.48 305.683 14.824 300.025 14.824H282.499ZM355.836 14.824C344.796 14.824 330.996 22.276 330.996 37.594V68.368C330.996 83.686 344.796 91.138 355.836 91.138H407.034C418.074 91.138 431.736 83.686 431.736 68.368H413.796C413.796 71.68 412.278 76.372 404.826 76.372H358.044C350.592 76.372 348.798 71.68 348.798 68.368V59.95H431.736V37.594C431.736 22.276 418.074 14.824 407.034 14.824H355.836ZM404.826 29.59C412.278 29.59 413.796 34.282 413.796 37.594V45.322H348.798V37.594C348.798 34.282 350.592 29.59 358.044 29.59H404.826ZM466.748 14.824C455.708 14.824 441.908 22.276 441.908 37.594V68.368C441.908 83.686 455.708 91.138 466.748 91.138H517.946C528.986 91.138 542.648 83.686 542.648 68.368H524.708C524.708 71.68 523.19 76.372 515.738 76.372H468.956C461.504 76.372 459.71 71.68 459.71 68.368V59.95H542.648V37.594C542.648 22.276 528.986 14.824 517.946 14.824H466.748ZM515.738 29.59C523.19 29.59 524.708 34.282 524.708 37.594V45.322H459.71V37.594C459.71 34.282 461.504 29.59 468.956 29.59H515.738ZM588.148 14.824C582.766 14.824 576.97 16.342 572.14 20.206V14.962H554.338V91H572.14C572.14 91 572.416 40.216 572.416 39.388C572.416 34.006 573.52 32.902 574.9 31.66C576.418 30.418 578.764 29.59 581.524 29.59H603.466C606.088 29.59 608.434 30.418 609.952 31.66C611.332 32.902 612.298 33.868 612.436 38.008H630.376C630.238 36.49 630.1 34.696 629.686 33.178C628.444 28.072 625.822 23.656 622.372 20.62C617.404 16.48 611.332 14.824 605.674 14.824H588.148ZM660.242 14.824C649.064 14.824 635.54 22.276 635.54 37.732C635.54 53.326 649.34 60.226 660.242 60.226H703.436C710.75 60.226 712.544 64.78 712.544 68.23C712.544 71.68 711.026 76.234 703.436 76.234H663.278C655.826 76.234 654.17 71.542 654.17 67.678H636.368C636.368 82.858 648.926 91 661.07 91H705.644C716.822 91 730.346 83.686 730.346 68.23C730.346 52.636 716.408 45.46 705.644 45.46H662.45C654.998 45.46 653.342 41.182 653.342 37.732C653.342 34.282 654.86 29.59 662.45 29.59H702.194C707.024 29.59 710.888 32.626 710.75 38.284H728.552C728.552 23.932 716.96 14.824 704.264 14.824H660.242Z" fill="black" fill-opacity="0.02"/>
</svg>
