<svg width="260" height="34" viewBox="0 0 260 34" fill="none" xmlns="http://www.w3.org/2000/svg">
<path opacity="0.03" d="M8.90239 0.757997C6.89339 0.757997 4.73739 1.297 2.97339 2.816C1.25839 4.286 0.131387 6.687 0.131387 9.48V24.327C0.131387 27.071 1.25839 29.472 2.97339 30.991C4.73739 32.461 6.89339 33 8.90239 33H36.5874C38.6454 33 40.7524 32.461 42.5164 30.991C44.2804 29.472 45.4074 27.071 45.4074 24.327L45.3094 22.073H39.0374V24.621C39.0374 26.042 38.6454 26.63 38.1064 27.071C37.6164 27.512 36.7344 27.757 35.8034 27.757H9.68639C8.75539 27.757 7.87339 27.512 7.38339 27.071C6.84439 26.63 6.45239 26.042 6.45239 24.621V9.137C6.45239 7.716 6.84439 7.177 7.38339 6.736C7.87339 6.295 8.75539 6.001 9.68639 6.001H35.8034C36.7344 6.001 37.6164 6.295 38.1064 6.736C38.6454 7.177 39.0374 7.716 39.0374 9.137V11.685H45.3094L45.4074 9.48C45.4074 6.687 44.2804 4.286 42.5164 2.767C40.7524 1.297 38.6454 0.757997 36.5874 0.757997H8.90239ZM58.2033 5.756C54.2833 5.756 49.4323 8.402 49.4323 13.841H55.8023C55.8023 12.665 56.3413 10.999 58.9873 10.999H74.3243C76.9703 10.999 77.5093 12.665 77.5093 13.841V18.251C75.8433 16.977 73.7363 16.389 71.8743 16.389H56.8313C52.9113 16.389 48.1093 18.986 48.1093 24.866C48.1093 30.746 52.9113 33.049 56.8313 33.049H71.8743C73.7363 33.049 75.8433 32.51 77.5093 31.285V33H83.8793V13.89C83.8793 8.402 79.0283 5.756 75.1083 5.756H58.2033ZM58.1053 21.632H74.2263C76.9213 21.632 77.4603 23.249 77.4603 24.866C77.4603 26.483 76.9213 27.806 74.2263 27.806H58.1053C55.4593 27.806 54.9203 26.483 54.9203 24.866C54.9203 23.249 55.4593 21.632 58.1053 21.632ZM100.384 5.952C98.4729 5.952 96.4149 6.491 94.6999 7.863V6.001H88.3789V33H94.6999C94.6999 33 94.7979 14.968 94.7979 14.674C94.7979 12.763 95.1899 12.371 95.6799 11.93C96.2189 11.489 97.0519 11.195 98.0319 11.195H105.823C106.754 11.195 107.587 11.489 108.126 11.93C108.616 12.371 108.959 12.714 109.008 14.184H115.378C115.329 13.645 115.28 13.008 115.133 12.469C114.692 10.656 113.761 9.088 112.536 8.01C110.772 6.54 108.616 5.952 106.607 5.952H100.384ZM126.424 5.952C122.504 5.952 117.604 8.598 117.604 14.037V24.964C117.604 30.403 122.504 33.049 126.424 33.049H144.603C148.523 33.049 153.374 30.403 153.374 24.964H147.004C147.004 26.14 146.465 27.806 143.819 27.806H127.208C124.562 27.806 123.925 26.14 123.925 24.964V21.975H153.374V14.037C153.374 8.598 148.523 5.952 144.603 5.952H126.424ZM143.819 11.195C146.465 11.195 147.004 12.861 147.004 14.037V16.781H123.925V14.037C123.925 12.861 124.562 11.195 127.208 11.195H143.819ZM165.805 5.952C161.885 5.952 156.985 8.598 156.985 14.037V24.964C156.985 30.403 161.885 33.049 165.805 33.049H183.984C187.904 33.049 192.755 30.403 192.755 24.964H186.385C186.385 26.14 185.846 27.806 183.2 27.806H166.589C163.943 27.806 163.306 26.14 163.306 24.964V21.975H192.755V14.037C192.755 8.598 187.904 5.952 183.984 5.952H165.805ZM183.2 11.195C185.846 11.195 186.385 12.861 186.385 14.037V16.781H163.306V14.037C163.306 12.861 163.943 11.195 166.589 11.195H183.2ZM208.911 5.952C207 5.952 204.942 6.491 203.227 7.863V6.001H196.906V33H203.227C203.227 33 203.325 14.968 203.325 14.674C203.325 12.763 203.717 12.371 204.207 11.93C204.746 11.489 205.579 11.195 206.559 11.195H214.35C215.281 11.195 216.114 11.489 216.653 11.93C217.143 12.371 217.486 12.714 217.535 14.184H223.905C223.856 13.645 223.807 13.008 223.66 12.469C223.219 10.656 222.288 9.088 221.063 8.01C219.299 6.54 217.143 5.952 215.134 5.952H208.911ZM234.51 5.952C230.541 5.952 225.739 8.598 225.739 14.086C225.739 19.623 230.639 22.073 234.51 22.073H249.847C252.444 22.073 253.081 23.69 253.081 24.915C253.081 26.14 252.542 27.757 249.847 27.757H235.588C232.942 27.757 232.354 26.091 232.354 24.719H226.033C226.033 30.109 230.492 33 234.804 33H250.631C254.6 33 259.402 30.403 259.402 24.915C259.402 19.378 254.453 16.83 250.631 16.83H235.294C232.648 16.83 232.06 15.311 232.06 14.086C232.06 12.861 232.599 11.195 235.294 11.195H249.406C251.121 11.195 252.493 12.273 252.444 14.282H258.765C258.765 9.186 254.649 5.952 250.141 5.952H234.51Z" fill="#21232B"/>
</svg>
