<svg width="390" height="447" viewBox="0 0 390 447" fill="none" xmlns="http://www.w3.org/2000/svg">
<circle opacity="0.68" cx="332.514" cy="263.514" r="68.562" transform="rotate(41.2184 332.514 263.514)" stroke="#E3E3E3"/>
<circle opacity="0.68" cx="332.514" cy="263.514" r="93.7171" transform="rotate(41.2184 332.514 263.514)" stroke="#E3E3E3"/>
<circle opacity="0.68" cx="332.514" cy="263.514" r="117.5" transform="rotate(41.2184 332.514 263.514)" stroke="#E3E3E3"/>
<circle opacity="0.68" cx="332.514" cy="263.514" r="44.7791" transform="rotate(41.2184 332.514 263.514)" stroke="#E3E3E3"/>
<circle opacity="0.68" cx="332.513" cy="263.514" r="26.0271" transform="rotate(41.2184 332.513 263.514)" stroke="#E3E3E3"/>
<circle opacity="0.68" cx="332.514" cy="263.514" r="12.7636" transform="rotate(41.2184 332.514 263.514)" stroke="#E3E3E3"/>
<path d="M-21.103 268.827C-12.8378 277.528 -5.93911 281.673 6.03259 282.76C16.8437 283.742 29.2264 280.226 39.7262 277.864C52.726 274.94 77.5053 274.64 82.7052 290.274C86.7428 302.413 76.5262 314.886 63.8597 309.393C58.9765 307.276 57.2733 300.142 60.1608 295.745C63.2795 290.996 70.8733 289.534 76.0542 289.044C89.9682 287.729 97.2375 301.582 109.14 305.459C120.26 309.08 129.42 305.122 138.992 299.388C139.812 298.897 138.899 302.782 138.765 303.766C138.275 307.375 139.214 305.872 139.585 303.143C139.823 301.387 141.254 297.781 138.751 298.457C136.945 298.944 133.333 298.619 131.416 298.359" stroke="#1C1C1C" stroke-width="3" stroke-linecap="round"/>
</svg>
