<svg width="771" height="516" viewBox="0 0 771 516" fill="none" xmlns="http://www.w3.org/2000/svg">
<circle opacity="0.68" cx="513" cy="258" r="150.5" stroke="#E3E3E3"/>
<circle opacity="0.68" cx="513" cy="258" r="205.5" stroke="#E3E3E3"/>
<circle opacity="0.68" cx="513" cy="258" r="257.5" stroke="#E3E3E3"/>
<circle opacity="0.68" cx="513" cy="258" r="98.5" stroke="#E3E3E3"/>
<circle opacity="0.68" cx="513" cy="258" r="57.5" stroke="#E3E3E3"/>
<circle opacity="0.68" cx="513" cy="258" r="28.5" stroke="#E3E3E3"/>
<path d="M5.6831 236.645C28.7148 258.096 47.4388 267.84 78.9526 268.766C107.411 269.603 139.263 258.413 166.371 250.547C199.932 240.808 264.752 236.05 280.871 276.142C293.387 307.272 268.642 341.562 234.603 329.215C221.48 324.455 215.878 306.052 222.731 294.079C230.134 281.147 249.778 276.102 263.262 273.989C299.476 268.315 320.727 303.415 352.506 311.653C382.197 319.351 405.542 307.522 429.68 290.974C431.747 289.557 429.979 299.874 429.787 302.473C429.083 312 431.3 307.912 431.833 300.709C432.175 296.076 435.344 286.407 428.9 288.576C424.25 290.141 414.741 289.87 409.681 289.496" stroke="#1C1C1C" stroke-width="5" stroke-linecap="round"/>
</svg>
