<svg width="38" height="38" viewBox="0 0 38 38" fill="none" xmlns="http://www.w3.org/2000/svg">
<path d="M8.19608 2.68235V8.04706H2.73203V2.68235H8.19608ZM0 0V10.7294H10.9281V0H0ZM30.0523 9.38824V14.7529H24.5882V6.70588H30.0523M21.8562 4.02353V14.7529H32.7843V4.02353H21.8562ZM8.19608 18.7765V24.1412H2.73203V18.7765H8.19608ZM0 16.0941V26.8235H10.9281V16.0941H0Z" fill="#FE621D"/>
<path d="M27.2709 11.1765V19.2235H19.2238V27.2706H11.1768V38H38.0003V11.1765H27.2709ZM21.9062 21.9059H27.2709V27.2706H21.9062V21.9059ZM19.2238 35.3176H13.8591V29.9529H19.2238V35.3176ZM27.2709 35.3176H21.9062V29.9529H27.2709V35.3176ZM35.3179 35.3176H29.9532V29.9529H35.3179V35.3176ZM35.3179 27.2706H29.9532V21.9059H35.3179V27.2706ZM29.9532 19.2235V13.8588H35.3179V19.2235H29.9532Z" fill="#FE621D"/>
</svg>
