<svg width="39" height="39" viewBox="0 0 39 39" fill="none" xmlns="http://www.w3.org/2000/svg">
<path d="M23.8059 36.9688H15.1934V38.5938H23.8059V36.9688Z" fill="#FE621D"/>
<path d="M10.4808 24.6187C11.6183 25.5938 12.3496 26.8937 12.6746 28.3562C12.7558 28.7625 12.7558 29.0875 12.7558 29.4125V30.55V32.175V33.3125C12.7558 34.3687 13.5683 35.1812 14.6246 35.1812H24.3746C25.4308 35.1812 26.2433 34.3687 26.2433 33.3125V32.175V30.55V29.4125C26.2433 29.0875 26.2433 28.7625 26.3246 28.3562C26.5683 26.8937 27.3808 25.5938 28.5183 24.6187C31.5246 22.0187 33.2308 18.2 33.2308 14.2187C33.2308 10.3187 31.5246 6.58125 28.5996 3.9C25.7558 1.3 21.9371 0.0812476 17.9558 0.487498C11.6183 1.21875 6.49959 6.25625 5.76834 12.5937C5.28084 17.1437 6.98709 21.6937 10.4808 24.6187ZM24.6183 33.3937C24.6183 33.5562 24.5371 33.6375 24.3746 33.6375H14.6246C14.4621 33.6375 14.3808 33.5562 14.3808 33.3937V32.2562H24.6183V33.3937ZM14.3808 30.55V29.4125C14.3808 29.25 14.3808 29.1687 14.3808 29.0062H24.6996C24.6996 29.1687 24.6996 29.25 24.6996 29.4125V30.55H14.3808ZM7.39334 12.7562C8.04334 7.23125 12.5121 2.7625 18.1183 2.1125C21.6121 1.70625 25.0246 2.7625 27.6246 5.11875C30.2246 7.39375 31.6871 10.725 31.6871 14.2187C31.6871 17.7125 30.1433 21.125 27.4621 23.4C26.2433 24.4562 25.3496 25.9187 24.8621 27.4625H14.0558C13.6496 25.9187 12.7558 24.5375 11.5371 23.4812C8.44959 20.8 6.90584 16.8187 7.39334 12.7562Z" fill="#FE621D"/>
<path d="M19.5 18.3625C21.775 18.3625 23.5625 16.4938 23.5625 14.3C23.5625 12.1063 21.6937 10.2375 19.5 10.2375C17.3062 10.2375 15.4375 12.1063 15.4375 14.3C15.4375 16.4938 17.225 18.3625 19.5 18.3625ZM19.5 11.7813C20.8812 11.7813 21.9375 12.9188 21.9375 14.2188C21.9375 15.6 20.8 16.6563 19.5 16.6563C18.2 16.6563 17.0625 15.5188 17.0625 14.2188C17.0625 12.9188 18.1187 11.7813 19.5 11.7813Z" fill="#FE621D"/>
<path d="M12.4314 17.9562L11.0502 19.6625L14.1377 22.75L15.8439 21.3687C16.2502 21.6125 16.7377 21.775 17.1439 21.9375L17.3064 24.1312H21.6939L21.8564 21.9375C22.3439 21.775 22.7502 21.6125 23.1564 21.3687L24.8627 22.75L27.9502 19.6625L26.5689 17.9562C26.8127 17.55 26.9752 17.0625 27.1377 16.6562L29.3314 16.4937V12.1062L27.1377 11.9437C26.9752 11.375 26.8127 10.9687 26.5689 10.5625L27.9502 8.85625L24.8627 5.76875L23.1564 7.15C22.7502 6.90625 22.2627 6.74375 21.8564 6.58125L21.6939 4.3875H17.3064L17.1439 6.58125C16.6564 6.74375 16.2502 6.90625 15.8439 7.15L14.1377 5.76875L11.0502 8.85625L12.4314 10.5625C12.1877 10.9687 12.0252 11.4562 11.8627 11.8625L9.66895 12.025V16.4125L11.8627 16.575C12.0252 17.0625 12.1877 17.55 12.4314 17.9562ZM11.2939 13.5687L13.1627 13.4062L13.3252 12.8375C13.4877 12.1875 13.7314 11.5375 14.1377 10.8875L14.4627 10.4L13.2439 8.9375L14.2189 7.9625L15.6002 9.18125L16.0877 8.85625C16.6564 8.45 17.3064 8.20625 18.0377 8.04375L18.6064 7.88125L18.7689 6.0125H20.1502L20.3127 7.88125L20.8814 8.04375C21.5314 8.20625 22.1814 8.45 22.8314 8.85625L23.3189 9.18125L24.7002 7.9625L25.6752 8.9375L24.4564 10.3187L24.7814 10.8062C25.1877 11.375 25.4314 12.025 25.5939 12.7562L25.7564 13.325L27.6252 13.4875V14.8687L25.7564 15.0312L25.5939 15.6C25.4314 16.25 25.1877 16.9 24.7814 17.55L24.4564 18.0375L25.6752 19.4187L24.7002 20.3937L23.3189 19.175L22.8314 19.5C22.2627 19.9062 21.6127 20.15 20.8814 20.3125L20.3127 20.475L20.1502 22.3437H18.7689L18.6064 20.475L18.0377 20.3125C17.3877 20.15 16.7377 19.9062 16.0877 19.5L15.6002 19.175L14.2189 20.3937L13.2439 19.5L14.4627 18.1187L14.1377 17.6312C13.7314 17.0625 13.4877 16.4125 13.3252 15.6812L13.1627 15.1125L11.2939 14.95V13.5687Z" fill="#FE621D"/>
</svg>
