<svg width="74" height="74" viewBox="0 0 74 74" fill="none" xmlns="http://www.w3.org/2000/svg">
<path d="M71.4598 0.000694307C71.4352 0.0023823 71.4105 0.00444111 71.3858 0.00687002H46.5105L23.257 23.2955L50.5927 50.6755L73.9973 27.2387V2.48333C73.9978 2.15246 73.9322 1.82483 73.8043 1.51975C73.6764 1.21466 73.4889 0.938303 73.2527 0.706943C73.0165 0.475583 72.7365 0.293904 72.4291 0.172611C72.1217 0.0513187 71.7932 -0.00713501 71.4629 0.000694307H71.4598ZM5.95399 0.00687002C5.46871 0.0120213 4.99564 0.159896 4.59359 0.432114C4.19154 0.704331 3.87824 1.08888 3.69263 1.53797C3.50703 1.98706 3.4573 2.48088 3.54964 2.95804C3.64197 3.4352 3.87229 3.87466 4.21198 4.2218L21.074 21.1124L42.1478 0.00687002H5.95399ZM51.8722 7.18923C52.0886 7.18944 52.3027 7.23267 52.5023 7.31642C52.7018 7.40017 52.8827 7.52277 53.0346 7.67711L55.9266 10.5643C56.0805 10.7177 56.2025 10.9001 56.2858 11.101C56.3691 11.3018 56.4119 11.5171 56.4119 11.7346C56.4119 11.952 56.3691 12.1673 56.2858 12.3682C56.2025 12.569 56.0805 12.7514 55.9266 12.9049L53.0346 15.792C52.8819 15.9459 52.7003 16.068 52.5003 16.1513C52.3002 16.2346 52.0858 16.2775 51.8691 16.2775C51.6525 16.2775 51.438 16.2346 51.238 16.1513C51.038 16.068 50.8564 15.9459 50.7037 15.792L47.8147 12.9049C47.6609 12.7514 47.5388 12.569 47.4556 12.3682C47.3723 12.1673 47.3294 11.952 47.3294 11.7346C47.3294 11.5171 47.3723 11.3018 47.4556 11.101C47.5388 10.9001 47.6609 10.7177 47.8147 10.5643L50.7037 7.67711C50.8571 7.52236 51.0397 7.39957 51.2408 7.31583C51.4419 7.23209 51.6575 7.18907 51.8753 7.18923H51.8722ZM41.4448 17.6509C41.8672 17.6509 42.2896 17.8084 42.6133 18.1326L45.4961 21.029C45.6498 21.182 45.7717 21.3638 45.8549 21.5641C45.9381 21.7645 45.9809 21.9793 45.9809 22.1962C45.9809 22.4132 45.9381 22.628 45.8549 22.8283C45.7717 23.0286 45.6498 23.2105 45.4961 23.3634L42.6133 26.2568C42.4601 26.4108 42.278 26.533 42.0775 26.6164C41.8769 26.6998 41.6619 26.7428 41.4448 26.7428C41.2277 26.7428 41.0127 26.6998 40.8122 26.6164C40.6116 26.533 40.4295 26.4108 40.2763 26.2568L37.3904 23.3634C37.2368 23.2105 37.1148 23.0286 37.0316 22.8283C36.9484 22.628 36.9056 22.4132 36.9056 22.1962C36.9056 21.9793 36.9484 21.7645 37.0316 21.5641C37.1148 21.3638 37.2368 21.182 37.3904 21.029L40.2763 18.1326C40.4297 17.9791 40.6119 17.8574 40.8125 17.7748C41.013 17.6921 41.2279 17.65 41.4448 17.6509ZM62.3274 17.6571C62.7598 17.6624 63.1727 17.8376 63.4774 18.1449L66.3448 21.0167C66.5 21.1703 66.6232 21.3533 66.7073 21.5549C66.7914 21.7566 66.8347 21.973 66.8347 22.1916C66.8347 22.4102 66.7914 22.6265 66.7073 22.8282C66.6232 23.0299 66.5 23.2129 66.3448 23.3665L63.4774 26.2382C63.3239 26.3941 63.1411 26.5179 62.9394 26.6025C62.7377 26.687 62.5213 26.7305 62.3027 26.7305C62.0841 26.7305 61.8677 26.687 61.666 26.6025C61.4644 26.5179 61.2815 26.3941 61.128 26.2382L58.2606 23.3665C58.1054 23.2129 57.9822 23.0299 57.8981 22.8282C57.814 22.6265 57.7707 22.4102 57.7707 22.1916C57.7707 21.973 57.814 21.7566 57.8981 21.5549C57.9822 21.3533 58.1054 21.1703 58.2606 21.0167L61.128 18.1449C61.2847 17.9868 61.4718 17.8621 61.6779 17.7783C61.884 17.6944 62.1049 17.6532 62.3274 17.6571ZM51.8907 28.0909C52.1071 28.0911 52.3212 28.1344 52.5208 28.2181C52.7203 28.3019 52.9012 28.4245 53.0531 28.5788L55.9451 31.466C56.099 31.6194 56.221 31.8018 56.3043 32.0027C56.3876 32.2035 56.4304 32.4188 56.4304 32.6363C56.4304 32.8537 56.3876 33.069 56.3043 33.2699C56.221 33.4707 56.099 33.6531 55.9451 33.8066L53.0531 36.6999C52.9004 36.8537 52.7188 36.9758 52.5188 37.0592C52.3187 37.1425 52.1043 37.1854 51.8876 37.1854C51.671 37.1854 51.4565 37.1425 51.2565 37.0592C51.0565 36.9758 50.8749 36.8537 50.7222 36.6999L47.8332 33.8066C47.6794 33.6531 47.5573 33.4707 47.4741 33.2699C47.3908 33.069 47.3479 32.8537 47.3479 32.6363C47.3479 32.4188 47.3908 32.2035 47.4741 32.0027C47.5573 31.8018 47.6794 31.6194 47.8332 31.466L50.7222 28.5788C50.8756 28.4241 51.0582 28.3013 51.2593 28.2175C51.4604 28.1338 51.676 28.0908 51.8938 28.0909H51.8907ZM17.9292 30.3204C17.7745 30.3201 17.6213 30.3506 17.4784 30.4099C17.3355 30.4693 17.2058 30.5564 17.0967 30.6662L0.364131 47.4302C0.254596 47.5392 0.167669 47.6689 0.108353 47.8117C0.0490359 47.9545 0.0184993 48.1077 0.0184993 48.2624C0.0184993 48.4171 0.0490359 48.5702 0.108353 48.713C0.167669 48.8558 0.254596 48.9855 0.364131 49.0946L3.92832 52.6641C4.03668 52.7736 4.16562 52.8606 4.30771 52.9199C4.4498 52.9792 4.60222 53.0098 4.75616 53.0098C4.9101 53.0098 5.06252 52.9792 5.20461 52.9199C5.3467 52.8606 5.47565 52.7736 5.584 52.6641L22.332 35.894C22.441 35.7852 22.5274 35.656 22.5864 35.5137C22.6454 35.3715 22.6758 35.2189 22.6758 35.0649C22.6758 34.9108 22.6454 34.7583 22.5864 34.616C22.5274 34.4737 22.441 34.3445 22.332 34.2358L18.7647 30.6662C18.6556 30.5564 18.5259 30.4693 18.383 30.4099C18.2401 30.3506 18.0869 30.3201 17.9323 30.3204H17.9292ZM73.9973 31.6049L52.7756 52.8587L69.65 69.7492C69.9865 70.1396 70.4361 70.4153 70.9364 70.5377C71.4366 70.6601 71.9625 70.6233 72.4409 70.4324C72.9192 70.2414 73.3262 69.9058 73.6052 69.4724C73.8842 69.0389 74.0212 68.529 73.9973 68.0139V31.6049ZM28.3042 40.9056C28.1493 40.9061 27.9961 40.9371 27.8532 40.997C27.7104 41.0569 27.5807 41.1444 27.4717 41.2545L0.345632 68.4184C0.236096 68.5274 0.14917 68.6571 0.0898534 68.7999C0.0305367 68.9427 0 69.0959 0 69.2505C0 69.4052 0.0305367 69.5584 0.0898534 69.7012C0.14917 69.844 0.236096 69.9737 0.345632 70.0827L3.90982 73.6523C4.01876 73.7625 4.14842 73.8499 4.29131 73.9096C4.43419 73.9693 4.58747 74 4.74229 74C4.8971 74 5.05038 73.9693 5.19327 73.9096C5.33616 73.8499 5.46581 73.7625 5.57475 73.6523L32.6947 46.4822C32.8042 46.3732 32.8911 46.2435 32.9504 46.1007C33.0098 45.9579 33.0403 45.8047 33.0403 45.65C33.0403 45.4954 33.0098 45.3422 32.9504 45.1994C32.8911 45.0566 32.8042 44.9269 32.6947 44.8179L29.1366 41.2545C29.0276 41.1444 28.8979 41.0569 28.7551 40.997C28.6122 40.9371 28.459 40.9061 28.3042 40.9056ZM38.6792 51.2437C38.5249 51.2426 38.372 51.2721 38.2291 51.3304C38.0863 51.3887 37.9563 51.4747 37.8467 51.5834L21.1049 68.3566C20.9959 68.4653 20.9094 68.5946 20.8504 68.7368C20.7914 68.8791 20.7611 69.0316 20.7611 69.1857C20.7611 69.3398 20.7914 69.4923 20.8504 69.6346C20.9094 69.7769 20.9959 69.9061 21.1049 70.0148L24.666 73.5844C24.7749 73.6941 24.9043 73.7811 25.0469 73.8405C25.1895 73.8999 25.3425 73.9305 25.4969 73.9305C25.6514 73.9305 25.8043 73.8999 25.9469 73.8405C26.0895 73.7811 26.2189 73.6941 26.3278 73.5844L43.0666 56.8142C43.1756 56.7055 43.262 56.5763 43.321 56.434C43.38 56.2917 43.4104 56.1392 43.4104 55.9851C43.4104 55.8311 43.38 55.6785 43.321 55.5362C43.262 55.394 43.1756 55.2647 43.0666 55.156L39.5024 51.5865C39.3944 51.4768 39.2658 51.3898 39.1239 51.3304C38.9821 51.271 38.8298 51.2405 38.6761 51.2406L38.6792 51.2437Z" fill="#23212B"/>
</svg>
