<svg width="32" height="32" viewBox="0 0 32 32" fill="none" xmlns="http://www.w3.org/2000/svg">
<path d="M31 6.84684C29.8968 7.32792 28.7116 7.65297 27.4657 7.79989C28.7513 7.0429 29.713 5.85148 30.1716 4.44795C28.9638 5.15395 27.6419 5.6509 26.2634 5.91719C25.3364 4.94315 24.1085 4.29755 22.7704 4.0806C21.4324 3.86366 20.059 4.08752 18.8634 4.71742C17.6679 5.34732 16.7171 6.34803 16.1588 7.56417C15.6004 8.78031 15.4656 10.1439 15.7754 11.4431C13.328 11.3222 10.9339 10.6962 8.74829 9.60576C6.5627 8.51535 4.63451 6.98487 3.08888 5.11366C2.56038 6.0108 2.2565 7.05097 2.2565 8.15875C2.25591 9.15601 2.50546 10.138 2.98302 11.0176C3.46057 11.8972 4.15136 12.6471 4.9941 13.201C4.01675 13.1704 3.06096 12.9105 2.20629 12.443V12.521C2.20619 13.9197 2.69783 15.2753 3.59779 16.3579C4.49775 17.4405 5.7506 18.1833 7.14375 18.4603C6.2371 18.7018 5.28654 18.7374 4.36387 18.5644C4.75693 19.7678 5.52259 20.8203 6.55364 21.5742C7.5847 22.3282 8.82954 22.7461 10.1139 22.7692C7.93363 24.4535 5.24102 25.3672 2.46922 25.3632C1.97822 25.3633 1.48764 25.3351 1 25.2786C3.81354 27.0589 7.08871 28.0037 10.4336 28C21.7566 28 27.9466 18.7711 27.9466 10.767C27.9466 10.5069 27.94 10.2443 27.9281 9.98425C29.1322 9.12738 30.1715 8.0663 30.9974 6.85074L31 6.84684Z" fill="black"/>
</svg>
