<svg width="39" height="39" viewBox="0 0 39 39" fill="none" xmlns="http://www.w3.org/2000/svg">
<path d="M7.45949 0.807067C7.70139 0.923346 7.90552 1.10556 8.04838 1.33273C8.19124 1.5599 8.26702 1.82279 8.26699 2.09113C8.26699 3.66771 8.85979 4.57566 9.60269 5.68117L9.65779 5.76095C10.2886 6.6993 11.117 7.92827 11.117 9.6891C11.117 11.486 10.2107 13.0702 8.82939 14.0105C9.19229 14.3144 9.51339 14.6886 9.79079 15.1369C10.6952 16.5995 11.117 18.8352 11.117 22.0453C11.117 25.2973 10.68 29.2026 9.96749 32.3216C9.61409 33.8716 9.17519 35.3019 8.65269 36.3751C8.40601 36.9091 8.07925 37.4023 7.68369 37.8377C7.29229 38.2385 6.68999 38.6659 5.89199 38.6659C5.09399 38.6659 4.49169 38.2385 4.10219 37.8377C3.70549 37.4032 3.37861 36.9098 3.13319 36.3751C2.60879 35.3 2.16989 33.8716 1.81649 32.3197C1.07539 28.9438 0.690123 25.4996 0.666994 22.0434C0.666994 18.8333 1.08879 16.5995 1.99319 15.1369C2.25121 14.7123 2.57582 14.332 2.95459 14.0105C2.24926 13.5317 1.67197 12.8875 1.27319 12.1342C0.874411 11.3809 0.66628 10.5414 0.666994 9.6891C0.666994 8.99009 0.666994 7.78771 1.39469 6.23582C2.10719 4.71623 3.46189 2.97059 5.95089 0.978022C6.16067 0.810266 6.4136 0.705207 6.68052 0.674959C6.94744 0.644712 7.21748 0.690508 7.45949 0.807067V0.807067ZM3.51699 9.68721V9.6891C3.51699 10.3188 3.76722 10.9228 4.21262 11.368C4.65801 11.8133 5.2621 12.0635 5.89199 12.0635C6.52188 12.0635 7.12597 11.8133 7.57137 11.368C8.01677 10.9228 8.26699 10.3188 8.26699 9.6891C8.26699 8.85523 7.91549 8.27778 7.23719 7.26915L7.21439 7.23496C6.77929 6.58913 6.26439 5.82363 5.89959 4.84159C4.86789 5.89012 4.29789 6.76008 3.97679 7.4439C3.51699 8.42404 3.51699 9.12116 3.51699 9.68531V9.68721ZM4.41759 16.6337C3.94639 17.3973 3.51699 18.9624 3.51699 22.0453C3.51699 25.0864 3.93119 28.779 4.59429 31.6872C4.92869 33.1498 5.30869 34.3369 5.69439 35.1271C5.76469 35.2734 5.83119 35.395 5.89199 35.4975C5.95279 35.395 6.01929 35.2734 6.08959 35.1271C6.47529 34.3369 6.85529 33.1479 7.18969 31.6872C7.85469 28.7809 8.26699 25.0883 8.26699 22.0453C8.26699 18.9624 7.83759 17.3973 7.36639 16.6337C7.22429 16.3766 7.00949 16.1671 6.74889 16.0315C6.47907 15.914 6.18604 15.8595 5.89199 15.872C5.51199 15.872 5.24029 15.9308 5.03509 16.0315C4.7745 16.1671 4.5597 16.3766 4.41759 16.6337V16.6337ZM15.867 25.2042C14.8604 25.0354 13.8812 24.7312 12.9562 24.3C13.0118 23.2227 13.0276 22.1437 13.0037 21.0652C13.8606 21.6407 14.8277 22.0643 15.867 22.2998V16.8122C15.867 16.0565 16.1673 15.3318 16.7017 14.7975C17.2362 14.2632 17.9611 13.963 18.717 13.963H26.317C26.3169 12.3687 25.8708 10.8062 25.0292 9.45212C24.1876 8.09798 22.9839 7.00615 21.5542 6.29998C20.1245 5.59382 18.5257 5.30145 16.9385 5.45593C15.3513 5.61041 13.839 6.20557 12.5724 7.17417C12.1924 6.12375 11.6509 5.32027 11.2747 4.76182L11.1987 4.64785C12.9058 3.44479 14.9106 2.7337 16.9944 2.59219C19.0782 2.45068 21.1608 2.88419 23.0149 3.84541C24.869 4.80662 26.4234 6.25859 27.5083 8.04281C28.5932 9.82704 29.167 11.8749 29.167 13.963H35.817C36.5729 13.963 37.2978 14.2632 37.8322 14.7975C38.3667 15.3318 38.667 16.0565 38.667 16.8122V33.9077C38.667 34.6633 38.3667 35.388 37.8322 35.9224C37.2978 36.4567 36.5729 36.7569 35.817 36.7569H18.717C17.9611 36.7569 17.2362 36.4567 16.7017 35.9224C16.1673 35.388 15.867 34.6633 15.867 33.9077V25.2023V25.2042ZM18.717 25.3238V33.9096H35.817V16.8141H28.806C28.214 19.103 26.9252 21.1515 25.1177 22.676C23.3102 24.2006 21.0735 25.1258 18.717 25.3238V25.3238ZM25.8306 16.8141H18.717V22.4613C20.3134 22.2824 21.8271 21.6578 23.0851 20.6592C24.3431 19.6605 25.2946 18.328 25.8306 16.8141V16.8141Z" fill="#FE621D"/>
</svg>
